<svg
    xmlns="http://www.w3.org/2000/svg"
    xmlns:xlink="http://www.w3.org/1999/xlink">
    <symbol id="address-autofill">
        <path fill-rule="evenodd" clip-rule="evenodd" d="M30.1188 11.4286H9.88078C8.77461 11.4286 7.85715 12.3253 7.85715 13.4067V26.5933C7.85715 27.6747 8.77461 28.5714 9.881 28.5714H30.119C31.2254 28.5714 32.1429 27.6747 32.1429 26.5933L32.1426 13.4067C32.1426 12.3253 31.2252 11.4286 30.1188 11.4286ZM15.1672 23.9059C16.1596 23.9059 17.0757 23.5751 17.8391 23.0153L19.3785 24.5547C19.6244 24.8007 20.0231 24.8007 20.269 24.5547C20.5149 24.3088 20.5149 23.9101 20.269 23.6642L18.7296 22.1247C19.2894 21.3867 19.6201 20.4708 19.6201 19.4528C19.6201 17.0102 17.6101 15 15.1672 15C12.7243 15 10.7143 17.0102 10.7143 19.4528C10.7143 21.8957 12.7243 23.9059 15.1672 23.9059ZM15.1672 16.2725C16.9229 16.2725 18.348 17.6974 18.348 19.4532C18.348 21.2089 16.9229 22.6337 15.1672 22.6337C13.4115 22.6337 11.9864 21.2088 11.9864 19.453C11.9864 17.6973 13.4115 16.2725 15.1672 16.2725ZM22.8571 18.3929C22.8571 18.097 23.097 17.8571 23.3929 17.8571H28.75C29.0459 17.8571 29.2857 18.097 29.2857 18.3929C29.2857 18.6887 29.0459 18.9286 28.75 18.9286H23.3929C23.097 18.9286 22.8571 18.6887 22.8571 18.3929ZM22.8571 21.6071C22.8571 21.3113 23.097 21.0714 23.3929 21.0714H26.6071C26.903 21.0714 27.1429 21.3113 27.1429 21.6071C27.1429 21.903 26.903 22.1429 26.6071 22.1429H23.3929C23.097 22.1429 22.8571 21.903 22.8571 21.6071Z" fill="currentColor" />
    </symbol>
    <symbol id="android-maps-sdk">
        <path fill-rule="evenodd" clip-rule="evenodd" d="M16.8594 27.6108L9.51587 31.0277C9.11111 31.2281 8.57143 30.8941 8.57143 30.3596V13.7906C8.57143 13.5234 8.70635 13.323 8.97619 13.1893L16.8594 9.28571V16.7532L16.5785 16.2777C16.515 16.1641 16.3669 16.1228 16.2506 16.1899C16.1342 16.2519 16.0919 16.3965 16.1606 16.5101L16.8594 17.6934V18.7266C15.1246 19.8258 13.9558 21.6602 13.7754 23.793H16.8594V27.6108ZM16.8594 23.793V27.6108L24.5692 31.4286L24.5692 23.793V31.4286L32.4524 28.2885C32.7222 28.1548 32.8571 27.9544 32.8571 27.6872V11.1182C32.8571 10.6505 32.3174 10.3165 31.9127 10.5169L24.5692 13.1034V16.7642L24.5692 13.1034L16.8594 9.28571V16.7532L17.7473 18.256C18.641 17.8583 19.6459 17.6361 20.7195 17.6361C21.7931 17.6361 22.798 17.8583 23.6918 18.256L24.5692 16.7642L24.8553 16.2777C24.924 16.1641 25.0668 16.1279 25.1832 16.1899C25.2995 16.257 25.3365 16.3965 25.2731 16.5101L24.5692 17.7022L24.1201 18.4626C24.2737 18.5444 24.4234 18.6316 24.5692 18.7241C26.3013 19.8231 27.4676 21.6586 27.653 23.793H24.5692H16.8594ZM16.8594 17.6935V18.7266C17.0068 18.6332 17.1583 18.5451 17.3136 18.4626L16.8594 17.6935ZM18.0963 21.3034C18.0963 21.6133 17.8372 21.8664 17.5198 21.8664C17.2025 21.8664 16.9434 21.6133 16.9434 21.3034C16.9434 20.9935 17.2025 20.7404 17.5198 20.7404C17.8372 20.7404 18.0963 20.9935 18.0963 21.3034ZM24.4851 21.3034C24.4851 21.6133 24.2259 21.8664 23.9086 21.8664C23.5913 21.8664 23.3321 21.6133 23.3321 21.3034C23.3321 20.9935 23.5913 20.7404 23.9086 20.7404C24.2259 20.7404 24.4851 20.9935 24.4851 21.3034Z" fill="currentColor" />
    </symbol>
    <symbol id="apple">
        <path d="M28.4251 14.8415C28.2969 14.945 26.0328 16.2722 26.0328 19.2234C26.0328 22.637 28.9138 23.8446 29 23.8745C28.9867 23.9481 28.5423 25.5284 27.481 27.1385C26.5347 28.5555 25.5464 29.9701 24.0429 29.9701C22.5394 29.9701 22.1524 29.0615 20.4168 29.0615C18.7253 29.0615 18.1239 30 16.7487 30C15.3734 30 14.4138 28.6889 13.3105 27.0787C12.0325 25.1879 11 22.2505 11 19.4626C11 14.991 13.7947 12.6195 16.5453 12.6195C18.0068 12.6195 19.225 13.6178 20.1426 13.6178C21.016 13.6178 22.378 12.5597 24.0407 12.5597C24.6708 12.5597 26.9349 12.6195 28.4251 14.8415ZM23.2513 10.6666C23.9389 9.81778 24.4254 8.64006 24.4254 7.46235C24.4254 7.29903 24.4121 7.13341 24.3834 7C23.2646 7.0437 21.9335 7.77518 21.1309 8.74357C20.5008 9.48885 19.9127 10.6666 19.9127 11.8604C19.9127 12.0398 19.9414 12.2192 19.9547 12.2767C20.0254 12.2905 20.1404 12.3066 20.2554 12.3066C21.2592 12.3066 22.5217 11.6074 23.2513 10.6666Z" fill="currentColor" />
    </symbol>
    <symbol id="boundaries-explorer">
        <circle cx="16.5" cy="16.5" r="7.25" stroke="currentColor" stroke-width="2.5" fill="none" />
        <rect x="20" y="22.2682" width="3.20767" height="12.5305" rx="1.60383" transform="rotate(-45 20 22.2682)" fill="currentColor" />
    </symbol>
    <symbol id="boundaries">
        <path d="M27.2825 12.7315H12.6948V27.2685H27.2825V12.7315Z" stroke="currentColor" stroke-miterlimit="10" stroke-linecap="round" stroke-linejoin="round" fill="transparent"/>
        <path d="M15.4588 10H10V15.4398H15.4588V10Z" fill="currentColor" />
        <path d="M15.4588 24.537H10V29.9769H15.4588V24.537Z" fill="currentColor" />
        <path d="M30.0002 24.5602H24.5414V30H30.0002V24.5602Z" fill="currentColor" />
        <path d="M30.0002 10H24.5414V15.4398H30.0002V10Z" fill="currentColor" />
    </symbol>
    <symbol id="datasets-api">
        <path d="M20 40C31.0457 40 40 31.0457 40 20C40 8.9543 31.0457 0 20 0C8.9543 0 0 8.9543 0 20C0 31.0457 8.9543 40 20 40Z" fill="white" />
        <path d="M12.8426 10.2821C14.7236 9.65513 17.2539 9.28571 19.9998 9.28571C22.7457 9.28571 25.2761 9.65513 27.157 10.2821C28.0919 10.5938 28.9258 10.9884 29.5479 11.4787C30.158 11.9595 30.7139 12.6586 30.7139 13.5714C30.7139 13.6085 30.713 13.6453 30.7112 13.6818C30.7121 14.1355 30.7143 15.2487 30.7143 15.7142C30.7143 16.6242 30.1644 17.3235 29.555 17.8065C28.9348 18.2979 28.1031 18.6929 27.1697 19.0046C25.2918 19.6315 22.761 19.9999 20.0002 19.9999C17.2394 19.9999 14.7086 19.6315 12.8307 19.0046C11.8972 18.6929 11.0656 18.2979 10.4454 17.8065C9.83592 17.3235 9.28607 16.6242 9.28607 15.7142C9.28607 15.1225 9.28571 13.5714 9.28571 13.5714C9.28571 12.6586 9.84166 11.9595 10.4517 11.4787C11.0739 10.9884 11.9077 10.5938 12.8426 10.2821Z" fill="currentColor" />
        <path d="M9.33408 18.469C9.30273 18.6156 9.28571 18.7687 9.28571 18.9284C9.28571 18.9284 9.28607 20.4795 9.28607 21.0713C9.28607 21.9813 9.83592 22.6806 10.4454 23.1635C11.0656 23.655 11.8972 24.05 12.8307 24.3616C14.7086 24.9886 17.2394 25.3569 20.0002 25.3569C22.761 25.3569 25.2918 24.9886 27.1697 24.3616C28.1031 24.05 28.9348 23.655 29.555 23.1635C30.1644 22.6806 30.7143 21.9813 30.7143 21.0713C30.7143 20.6058 30.7121 19.4926 30.7112 19.0388C30.713 19.0024 30.7139 18.9656 30.7139 18.9284C30.7139 18.7694 30.697 18.6168 30.6659 18.4707C30.519 19.1594 30.0572 19.7044 29.555 20.1024C28.9348 20.5938 28.1031 20.9888 27.1697 21.3005C25.2918 21.9274 22.761 22.2958 20.0002 22.2958C17.2394 22.2958 14.7086 21.9274 12.8307 21.3005C11.8972 20.9888 11.0656 20.5938 10.4454 20.1024C9.94271 19.704 9.48058 19.1585 9.33408 18.469Z" fill="currentColor" />
        <path d="M9.28571 24.2858C9.28571 24.1261 9.30273 23.9729 9.33408 23.8264C9.48058 24.5159 9.94271 25.0614 10.4454 25.4597C11.0656 25.9512 11.8972 26.3462 12.8307 26.6578C14.7086 27.2848 17.2394 27.6531 20.0002 27.6531C22.761 27.6531 25.2918 27.2848 27.1697 26.6578C28.1031 26.3462 28.9348 25.9512 29.555 25.4597C30.0572 25.0617 30.519 24.5168 30.6659 23.8281C30.697 23.9741 30.7139 24.1267 30.7139 24.2858C30.7139 24.3229 30.713 24.3597 30.7112 24.3962C30.7121 24.8499 30.7143 25.9631 30.7143 26.4286C30.7143 27.3387 30.1644 28.0379 29.555 28.5209C28.9348 29.0124 28.1031 29.4074 27.1697 29.719C25.2918 30.3459 22.761 30.7143 20.0002 30.7143C17.2394 30.7143 14.7086 30.3459 12.8307 29.719C11.8972 29.4074 11.0656 29.0124 10.4454 28.5209C9.83592 28.0379 9.28607 27.3387 9.28607 26.4286C9.28607 25.8369 9.28571 24.2858 9.28571 24.2858Z" fill="currentColor" />
    </symbol>
    <symbol id="directions-api">
        <path d="M28.9367 24.6226C27.3968 24.6226 26.1345 25.709 25.8063 27.1492H15.0519C13.3605 27.1492 11.9721 25.7596 11.9721 24.0667V23.6119C11.9721 21.919 13.3605 20.5294 15.0519 20.5294H25.2762C27.6745 20.5294 29.6183 18.5838 29.6183 16.1835C29.6183 13.7832 27.6745 11.8376 25.2762 11.8376H14.1684C13.8907 10.3974 12.6032 9.28571 11.0632 9.28571C9.29608 9.28571 7.85712 10.7259 7.85712 12.4946C7.85712 14.2632 9.29608 15.7034 11.0632 15.7034C12.6032 15.7034 13.9159 14.5917 14.1936 13.1262H25.3014C26.9928 13.1262 28.3813 14.5159 28.3813 16.2088C28.3813 17.9016 26.9928 19.2913 25.3014 19.2913H15.0519C12.6537 19.2913 10.7098 21.2368 10.7098 23.6372V24.092C10.7098 26.4923 12.6537 28.4378 15.0519 28.4378H25.7811C26.0588 29.878 27.3715 31.015 28.9367 31.015C30.7039 31.015 32.1428 29.5748 32.1428 27.8062C32.1428 26.0375 30.7039 24.6226 28.9367 24.6226Z" fill="currentColor" />
    </symbol>
    <symbol id="discord">
        <path d="M29.3303 12.2278C27.7767 11.5009 26.1156 10.9727 24.3789 10.6719C24.1656 11.0575 23.9164 11.5761 23.7446 11.9887C21.8985 11.7111 20.0693 11.7111 18.2572 11.9887C18.0854 11.5761 17.8306 11.0575 17.6154 10.6719C15.8768 10.9727 14.2138 11.5029 12.6602 12.2317C9.52664 16.9669 8.67719 21.5845 9.10192 26.1365C11.1803 27.6885 13.1944 28.6313 15.1746 29.2483C15.6635 28.5754 16.0995 27.8601 16.4752 27.1063C15.7598 26.8344 15.0745 26.499 14.4271 26.1095C14.5988 25.9822 14.7669 25.8492 14.9292 25.7123C18.8782 27.5594 23.1689 27.5594 27.0707 25.7123C27.235 25.8492 27.403 25.9822 27.5728 26.1095C26.9235 26.5009 26.2364 26.8363 25.521 27.1082C25.8966 27.8601 26.3308 28.5774 26.8216 29.2502C28.8036 28.6333 30.8197 27.6905 32.898 26.1365C33.3964 20.8595 32.0467 16.2843 29.3303 12.2278ZM17.0132 23.337C15.8277 23.337 14.8556 22.2303 14.8556 20.8826C14.8556 19.535 15.807 18.4264 17.0132 18.4264C18.2194 18.4264 19.1916 19.533 19.1708 20.8826C19.1727 22.2303 18.2194 23.337 17.0132 23.337ZM24.9867 23.337C23.8013 23.337 22.8291 22.2303 22.8291 20.8826C22.8291 19.535 23.7805 18.4264 24.9867 18.4264C26.193 18.4264 27.1651 19.533 27.1444 20.8826C27.1444 22.2303 26.193 23.337 24.9867 23.337Z" fill="currentColor" />
    </symbol>
    <symbol id="fonts-api">
        <path d="M14.9714 22.4286H18.1286L16.5571 18.5286L14.9714 22.4286Z" fill="currentColor" />
        <path d="M22.9587 23.3714C22.9587 23.9857 23.5016 24.3 24.1873 24.3C25.173 24.3 26.0016 23.6 26.0016 22.6429V22.5143H24.2016C23.4016 22.5143 22.9587 22.8 22.9587 23.3714Z" fill="currentColor" />
        <path fill-rule="evenodd" clip-rule="evenodd" d="M9.28572 10C8.49674 10 7.85715 10.6396 7.85715 11.4286V27.8571C7.85715 28.6461 8.49674 29.2857 9.28572 29.2857H30.7143C31.5033 29.2857 32.1429 28.6461 32.1429 27.8571V13.5714C32.1429 12.7824 31.5033 12.1429 30.7143 12.1429H16.0263C15.6023 12.1429 15.2002 11.9545 14.9288 11.6288L13.9998 10.514C13.7284 10.1883 13.3263 10 12.9023 10H9.28572ZM20.9714 25.3H19.3429L18.6714 23.7286H14.4286L13.7571 25.3H12.1429L16.3 15.7143H16.8143L20.9714 25.3ZM21.6873 19.6286C22.4159 18.6 23.4587 18.1286 24.6444 18.1286C26.3301 18.1286 27.5159 19.1143 27.5159 21.0571V25.3H26.1159V24.5143C25.6159 25.1143 24.8444 25.4571 23.873 25.4571C22.4016 25.4571 21.4301 24.6429 21.4301 23.4286C21.4301 22.2 22.4444 21.4286 24.0159 21.4286H26.0016V20.9714C26.0016 20 25.4587 19.4714 24.5016 19.4714C23.6873 19.4714 23.1159 19.8571 22.5587 20.5143L21.6873 19.6286Z" fill="currentColor" />
    </symbol>
    <symbol id="geocoding-api">
        <path fill-rule="evenodd" clip-rule="evenodd" d="M10 17.2045C10 11.6371 14.4942 7.14285 20.0616 7.14285C25.6291 7.14285 30.1233 11.7041 30.1233 17.2045C30.1233 22.4182 21.7231 32.0174 20.6886 33.1995C20.645 33.2493 20.6145 33.2841 20.5983 33.3031C20.4641 33.5043 20.2629 33.5714 20.0616 33.5714C19.8604 33.5714 19.6592 33.4373 19.525 33.3031C19.5103 33.2859 19.4838 33.2556 19.4465 33.2128C18.4663 32.0881 10 22.3741 10 17.2045ZM22.0947 12.8836C22.201 12.6074 22.0632 12.2975 21.787 12.1913C21.5109 12.0851 21.2009 12.2228 21.0947 12.499L17.2617 22.4648C17.1555 22.7409 17.2933 23.0509 17.5694 23.1571C17.8456 23.2633 18.1555 23.1255 18.2617 22.8494L22.0947 12.8836ZM15.7004 14.3824C15.9096 14.5916 15.9096 14.9308 15.7004 15.14L13.92 16.9203L15.7004 18.7007C15.9096 18.9099 15.9096 19.2491 15.7004 19.4583C15.4912 19.6675 15.152 19.6675 14.9428 19.4583L12.7836 17.2991C12.5744 17.0899 12.5744 16.7507 12.7836 16.5415L14.9428 14.3824C15.152 14.1732 15.4912 14.1732 15.7004 14.3824ZM24.5251 18.7008C24.3159 18.91 24.3159 19.2492 24.5251 19.4584C24.7343 19.6676 25.0735 19.6676 25.2827 19.4584L27.4419 17.2992C27.6511 17.09 27.6511 16.7508 27.4419 16.5416L25.2827 14.3824C25.0735 14.1732 24.7343 14.1732 24.5251 14.3824C24.3159 14.5917 24.3159 14.9309 24.5251 15.1401L26.3055 16.9204L24.5251 18.7008Z" fill="currentColor" />
    </symbol>
    <symbol id="ios-maps-sdk">
        <path fill-rule="evenodd" clip-rule="evenodd" d="M16.1451 27.483L8.80159 31.0092C8.39683 31.2161 7.85715 30.8713 7.85715 30.3197V13.2205C7.85715 12.9447 7.99207 12.7379 8.26191 12.6L16.1451 8.57144V18.828C15.9484 19.2828 15.85 19.8012 15.85 20.3828C15.85 20.9736 15.9491 21.5815 16.1451 22.2079V27.483ZM16.1451 22.2079C16.1634 22.2662 16.1825 22.3247 16.2025 22.3834C16.4217 23.0209 16.702 23.5793 17.0434 24.0616C17.3617 24.5132 17.6272 24.8319 17.8391 25.0178C18.1721 25.3281 18.5052 25.4759 18.8392 25.462C19.0594 25.4545 19.3462 25.3793 19.7033 25.2343C20.0595 25.0903 20.3925 25.0187 20.7034 25.0187C20.9995 25.0187 21.3233 25.0903 21.6758 25.2343C22.0264 25.3793 22.3289 25.4508 22.5787 25.4508C22.9275 25.4434 23.2532 25.2993 23.5566 25.0187C23.7528 24.8477 24.0063 24.5402 24.3171 24.0951C24.5447 23.7689 24.7408 23.4139 24.9074 23.0283C24.9758 22.8648 25.0406 22.6947 25.1017 22.5154C24.8204 22.3974 24.5678 22.2301 24.3412 22.0145C23.8416 21.5499 23.5872 20.9645 23.5798 20.2601C23.5714 19.356 23.9804 18.6517 24.8065 18.1489C24.3449 17.4892 23.651 17.124 22.7268 17.0487C22.3854 17.0199 21.969 17.0933 21.4759 17.2718C20.9551 17.4641 20.647 17.5607 20.5563 17.5607C20.4351 17.5607 20.1576 17.478 19.7264 17.3154C19.2934 17.1537 18.9456 17.071 18.6801 17.071C18.1943 17.0794 17.7447 17.2067 17.3275 17.4548C16.9111 17.7038 16.5781 18.0421 16.3274 18.4714C16.2593 18.5856 16.1986 18.7044 16.1451 18.828L16.1451 8.57144L23.8549 12.5114L23.8549 12.5113L31.1984 9.84205C31.6032 9.6352 32.1429 9.97994 32.1429 10.4626V27.5618C32.1429 27.8376 32.0079 28.0444 31.7381 28.1823L23.8549 31.4229L16.1451 27.483L16.1451 22.2079ZM20.4888 17.0385C21.1216 17.0896 21.7054 16.7625 22.1883 16.1957C22.588 15.719 22.7887 15.2042 22.7887 14.6523C22.7887 14.5789 22.785 14.5045 22.7776 14.4311C22.4992 14.446 22.2031 14.5305 21.8895 14.6839C21.5758 14.839 21.3168 15.0342 21.1133 15.2693C20.7053 15.733 20.4758 16.2998 20.4758 16.8294C20.4758 16.9029 20.4804 16.9725 20.4888 17.0385Z" fill="currentColor" />
    </symbol>
    <symbol id="ios-nav-sdk">
        <path fill-rule="evenodd" clip-rule="evenodd" d="M21.742 6.65942C20.9768 5.30294 19.0232 5.30294 18.258 6.65942L6.67861 27.1866C5.80028 28.7436 7.25011 30.5829 8.96922 30.0925L19.4514 27.1023C19.81 27 20.19 27 20.5486 27.1023L31.0308 30.0925C32.7499 30.5829 34.1997 28.7436 33.3214 27.1866L21.742 6.65942ZM23.9857 17.2423C23.9988 17.2336 24.0078 17.2276 24.012 17.2243C23.3023 16.1892 22.2242 16.1613 21.9241 16.1613C21.4651 16.1613 21.0541 16.327 20.7088 16.4663C20.4585 16.5672 20.2427 16.6542 20.0679 16.6542C19.8747 16.6542 19.6536 16.5633 19.4068 16.4619C19.0954 16.3339 18.7432 16.1892 18.3549 16.1892C17.0451 16.1892 15.7143 17.2939 15.7143 19.377C15.7143 20.6757 16.206 22.044 16.8145 22.9248C17.3399 23.6749 17.7969 24.2857 18.4517 24.2857C18.7623 24.2857 18.9899 24.1874 19.2294 24.084C19.4949 23.9694 19.7749 23.8485 20.1985 23.8485C20.6265 23.8485 20.8823 23.962 21.1289 24.0715C21.3585 24.1734 21.58 24.2718 21.9252 24.2718C22.6411 24.2718 23.1118 23.6128 23.5624 22.9527C24.0678 22.2026 24.2794 21.4665 24.2857 21.4322C24.2446 21.4183 22.8728 20.8557 22.8728 19.2655C22.8728 17.9851 23.808 17.3609 23.9857 17.2423ZM22.1073 13.7868C22.1073 14.3354 21.8757 14.884 21.5482 15.2794C21.2008 15.7177 20.5996 16.0434 20.1216 16.0434C20.0669 16.0434 20.0121 16.0359 19.9784 16.0295C19.9721 16.0027 19.9584 15.9191 19.9584 15.8356C19.9584 15.2794 20.2385 14.7308 20.5385 14.3836C20.9207 13.9325 21.5546 13.5918 22.0873 13.5714C22.101 13.6336 22.1073 13.7107 22.1073 13.7868Z" fill="currentColor" />
    </symbol>
    <symbol id="isochrone-api">
        <path fill-rule="evenodd" clip-rule="evenodd" d="M20.5929 7.62525C20.2067 7.50533 19.7932 7.50533 19.4069 7.62525L12.886 9.64977C12.4883 9.77325 12.139 10.0178 11.887 10.3493L7.9079 15.5824C7.64324 15.9305 7.49994 16.3557 7.49994 16.7929V23.2065C7.49994 23.6438 7.64324 24.069 7.9079 24.4171L11.887 29.6502C12.139 29.9817 12.4883 30.2262 12.886 30.3497L19.4069 32.3742C19.7932 32.4941 20.2067 32.4941 20.5929 32.3742L27.1139 30.3497C27.5116 30.2262 27.8608 29.9817 28.1129 29.6502L32.092 24.4171C32.3566 24.069 32.4999 23.6438 32.4999 23.2065V16.7929C32.4999 16.3557 32.3566 15.9305 32.092 15.5824L28.1129 10.3493C27.8608 10.0178 27.5116 9.77325 27.1139 9.64977L20.5929 7.62525ZM20 23.75C22.071 23.75 23.75 22.0711 23.75 20C23.75 17.9289 22.071 16.25 20 16.25C17.9289 16.25 16.25 17.9289 16.25 20C16.25 22.0711 17.9289 23.75 20 23.75Z" fill="currentColor" />
    </symbol>
    <symbol id="japan-search-api">
        <path d="M23.0409 16.8382C22.7065 17.4502 22.3123 18.0131 21.8692 18.5007H23.0409V16.8382Z" fill="currentColor" />
        <path d="M23.9938 18.5007H25.1807C24.7307 18.0106 24.3322 17.4431 23.9938 16.8292V18.5007Z" fill="currentColor" />
        <path d="M14.4946 19.2081H17.8074V17.489H14.4946V19.2081Z" fill="currentColor" />
        <path d="M14.4946 16.5837V14.9483H17.8074V16.5837H14.4946Z" fill="currentColor" />
        <path fill-rule="evenodd" clip-rule="evenodd" d="M10 17.2045C10 11.6371 14.4942 7.14285 20.0616 7.14285C25.6291 7.14285 30.1233 11.7041 30.1233 17.2045C30.1233 22.4182 21.7231 32.0174 20.6886 33.1995C20.645 33.2493 20.6145 33.2841 20.5983 33.3031C20.4641 33.5043 20.2629 33.5714 20.0616 33.5714C19.8604 33.5714 19.6592 33.4373 19.525 33.3031C19.5103 33.2859 19.4838 33.2555 19.4465 33.2128C18.4662 32.088 10 22.3741 10 17.2045ZM20.2343 15.9752V15.0472H23.0409V13.5714H23.9938V15.0472H26.8227V15.9752H24.5237C25.1158 17.1196 26.0689 18.1758 27.1429 18.7441C26.9195 18.9343 26.5994 19.3146 26.4505 19.5733C26.009 19.2964 25.598 18.9479 25.2222 18.5455V19.4287H23.9938V20.7143H23.0409V19.4287H21.7679V18.61C21.4051 18.9934 21.0111 19.3267 20.5916 19.5961C20.4428 19.3679 20.145 19.0179 19.944 18.8354C20.9913 18.2481 21.9345 17.1571 22.5152 15.9752H20.2343ZM13.5714 20.623V14.0278H18.7677V20.6154H17.8074V20.1286H14.4946V20.623H13.5714Z" fill="currentColor" />
    </symbol>
    <symbol id="javascript">
        <path fill-rule="evenodd" clip-rule="evenodd" d="M20 33.5714C27.4953 33.5714 33.5714 27.4953 33.5714 20C33.5714 12.5047 27.4953 6.42856 20 6.42856C12.5047 6.42856 6.42857 12.5047 6.42857 20C6.42857 27.4953 12.5047 33.5714 20 33.5714ZM19.8072 17.7339C19.8072 16.0672 21.1988 15 23.0153 15C24.5535 15 25.6375 15.7748 26.2088 16.8275L24.8611 17.8655C24.3923 17.1637 23.8064 16.7544 23.0153 16.7544C22.3708 16.7544 21.8141 17.0468 21.8141 17.69C21.8141 18.2456 22.2389 18.4795 22.9421 18.8012L24.0408 19.2836C25.5643 19.9561 26.4286 20.731 26.4286 22.1052C26.4286 23.9035 24.9637 25 23.0446 25C21.3746 25 20.0269 24.152 19.3091 22.8655L20.6715 21.8421C21.1988 22.5731 21.8873 23.2456 23.0446 23.2456C23.8943 23.2456 24.4216 22.8509 24.4216 22.1783C24.4216 21.5497 23.9529 21.3304 23.1911 20.9795L22.151 20.5117C20.774 19.883 19.8072 19.0936 19.8072 17.7339ZM15.9299 15.1754H17.9076V22.2514C17.9076 24.1228 16.8089 25 14.9631 25C14.4504 25 13.9816 24.9269 13.5714 24.8245V23.1433C13.6461 23.1488 13.7181 23.1543 13.7875 23.1596L13.7903 23.1598L13.7912 23.1599L13.7912 23.1599C14.0881 23.1827 14.3371 23.2017 14.5383 23.2017C15.4758 23.2017 15.9299 22.9093 15.9299 22.0468V15.1754Z" fill="currentColor" />
    </symbol>
    <symbol id="js-maps-sdk">
        <path fill-rule="evenodd" clip-rule="evenodd" d="M16.1451 26.8966L8.80159 30.3134C8.39683 30.5139 7.85715 30.1798 7.85715 29.6453V13.0764C7.85715 12.8091 7.99207 12.6087 8.26191 12.4751L16.1451 8.57144H16.1451L23.8549 12.3892V14.7993C23.5585 14.7217 23.2376 14.6798 22.893 14.6798C21.1502 14.6798 19.815 15.7392 19.815 17.3935C19.815 18.7431 20.7426 19.5268 22.0638 20.1508L23.0617 20.6152C23.3866 20.77 23.6559 20.899 23.8549 21.0493V22.6099C23.6281 22.7754 23.3098 22.8645 22.9211 22.8645C21.8108 22.8645 21.1502 22.1969 20.6442 21.4714L19.3371 22.4872C20.0258 23.7642 21.3189 24.6059 22.9211 24.6059C23.2479 24.6059 23.561 24.5716 23.8549 24.5053V30.7143L16.1451 26.8966H16.1451ZM23.8549 24.5052V30.7143L31.7381 27.5742C32.008 27.4406 32.1429 27.2402 32.1429 26.9729V10.404C32.1429 9.93628 31.6032 9.60223 31.1984 9.80266L23.8549 12.3892V14.7993C24.8277 15.0541 25.5369 15.6929 25.957 16.4938L24.664 17.5241C24.429 17.1602 24.1633 16.8755 23.8549 16.6866V18.9218L23.8769 18.9318C25.3386 19.5993 26.1678 20.3685 26.1678 21.7326C26.1678 23.2007 25.217 24.1976 23.8549 24.5052ZM23.8549 21.0494V22.6099C24.1038 22.4282 24.2423 22.1544 24.2423 21.8051C24.2423 21.4585 24.1035 21.2373 23.8549 21.0494ZM23.8549 18.9218V16.6865C23.573 16.5139 23.2554 16.4212 22.893 16.4212C22.2746 16.4212 21.7405 16.7115 21.7405 17.35C21.7405 17.9014 22.1481 18.1336 22.8228 18.4529L23.8549 18.9218ZM16.0951 14.8539H17.9925V21.8777C17.9925 23.7352 16.9384 24.6059 15.1674 24.6059C14.6755 24.6059 14.2258 24.5334 13.8322 24.4318V22.7629C13.9051 22.7685 13.9754 22.7741 14.0431 22.7794L14.0431 22.7794C14.3279 22.802 14.5668 22.821 14.7599 22.821C15.6594 22.821 16.0951 22.5307 16.0951 21.6745V14.8539Z" fill="currentColor" />
    </symbol>
    <symbol id="mapbox-gl-geocoder">
        <rect x="15" y="29.2857" width="10" height="1.42857" rx="0.714286" fill="currentColor" />
        <path fill-rule="evenodd" clip-rule="evenodd" d="M8.38344 10.7143C7.98896 10.7143 7.66916 11.0341 7.66916 11.4286V27.1429C7.66916 27.5374 7.98896 27.8572 8.38344 27.8572H32.218C32.6125 27.8572 32.9323 27.5374 32.9323 27.1429V11.4286C32.9323 11.0341 32.6125 10.7143 32.218 10.7143H8.38344ZM20.175 17.5386C20.175 15.991 21.4894 15 23.205 15C24.6577 15 25.6815 15.7195 26.221 16.697L24.9482 17.6608C24.5055 17.0092 23.9521 16.6291 23.205 16.6291C22.5962 16.6291 22.0705 16.9006 22.0705 17.4979C22.0705 18.0138 22.4717 18.231 23.1358 18.5297L24.1734 18.9777C25.6123 19.6021 26.4286 20.3216 26.4286 21.5978C26.4286 23.2676 25.045 24.2857 23.2326 24.2857C21.6554 24.2857 20.3825 23.4983 19.7046 22.3037L20.9913 21.3534C21.4894 22.0322 22.1396 22.6567 23.2326 22.6567C24.0351 22.6567 24.5331 22.2901 24.5331 21.6656C24.5331 21.0819 24.0904 20.8782 23.371 20.5524L22.3887 20.118C21.0881 19.5343 20.175 18.8012 20.175 17.5386ZM16.5132 15.1629H18.381V21.7335C18.381 23.4712 17.3433 24.2857 15.6001 24.2857C15.1158 24.2857 14.6731 24.2178 14.2857 24.1228V22.5616C14.3575 22.5668 14.4266 22.572 14.4933 22.5771C14.7736 22.5982 15.0088 22.6159 15.1988 22.6159C16.0843 22.6159 16.5132 22.3444 16.5132 21.5434V15.1629Z" fill="currentColor" />
    </symbol>
    <symbol id="mapbox-studio-manual">
        <path d="M31.9981 9.84965C31.6119 11.077 30.8384 12.0744 30.1011 13.085C27.7696 16.2778 25.1972 19.2671 22.5851 22.2206C22.3452 22.492 22.1025 22.7617 21.8996 22.9898C20.7102 21.8209 19.5246 20.6547 18.3278 19.4773C19.0114 18.8382 19.6663 18.2254 20.3212 17.6117C22.6962 15.3889 25.1231 13.2273 27.6788 11.2231C28.5356 10.551 29.4573 9.96278 30.3595 9.35097C30.5513 9.22088 30.7773 9.13227 30.9987 9.06251C31.4961 8.90414 31.7823 9.04365 32 9.51594V9.84965H31.9981Z" fill="currentColor" />
        <path d="M12.0651 32C10.7942 31.9397 9.57146 31.6701 8.38395 31.2242C8.10698 31.1205 7.98101 30.948 8.00231 30.7227C8.02361 30.4917 8.16441 30.3314 8.46546 30.305C9.43067 30.2211 9.85306 29.5829 10.0624 28.7242C10.2541 27.9389 10.4144 27.1452 10.6154 26.3627C11.1036 24.467 12.3578 23.4338 14.2095 23.0501C14.6439 22.9606 14.9144 23.0558 15.2173 23.3819C16.1982 24.4396 17.2135 25.4643 18.2268 26.49C18.3889 26.654 18.4158 26.7935 18.3584 27.0104C18.111 27.9455 17.7683 28.8326 17.2042 29.6216C16.2649 30.9376 14.9737 31.6474 13.4156 31.8822C12.9691 31.9491 12.5153 31.9623 12.0641 32H12.0651Z" fill="currentColor" />
        <path d="M17.4256 20.3437C18.6418 21.539 19.8432 22.7192 21.0613 23.9155C20.4453 24.5792 19.8627 25.206 19.3162 25.7943C18.0795 24.581 16.8503 23.3753 15.5971 22.147C16.2482 21.5051 16.8615 20.9008 17.4256 20.3437Z" fill="currentColor" />
    </symbol>
    <symbol id="mapbox-studio">
        <path d="M29.4078 13.5073C26.3351 8.99552 20.2654 7.30673 15.3038 9.57525C12.3571 10.9111 10.1911 13.3309 9.1585 16.3808C8.15107 19.3803 8.45329 22.7074 9.96443 25.48C11.9037 29.0088 15.606 31.3025 19.6357 31.4286H19.6861C20.1646 31.4286 20.618 31.2521 20.9454 30.9245C21.3232 30.5716 21.5247 30.0927 21.5247 29.5886L21.6002 24.0433C21.6002 23.7156 21.8269 23.5644 21.9024 23.514C22.0032 23.4636 22.2299 23.3627 22.5069 23.5392L27.2166 26.4883C27.6448 26.7655 28.1485 26.8411 28.627 26.7151C29.1307 26.5891 29.5337 26.2866 29.8107 25.8329C32.1026 21.9512 31.9515 17.2378 29.4078 13.5073ZM11.6771 17.6159C11.9289 16.7841 12.6845 16.2295 13.5408 16.2295C13.7171 16.2295 13.8934 16.2547 14.0697 16.3052C15.1023 16.6076 15.6816 17.6915 15.3793 18.6997C15.2282 19.2038 14.9008 19.6071 14.4475 19.8592C14.1704 20.0104 13.843 20.086 13.5156 20.086C13.3393 20.086 13.1378 20.0608 12.9615 20.0104C12.4578 19.8592 12.0549 19.5315 11.803 19.0778C11.6015 18.6241 11.526 18.0948 11.6771 17.6159ZM15.0268 25.1271C14.7245 25.2784 14.4223 25.354 14.0949 25.354C13.4149 25.354 12.7349 25.0011 12.4074 24.3458C11.9037 23.4132 12.2311 22.2285 13.163 21.7244C14.0949 21.2203 15.2786 21.5479 15.7823 22.4805C16.3112 23.4384 15.9586 24.623 15.0268 25.1271ZM17.772 15.7254C17.4698 15.8767 17.1675 15.9523 16.8401 15.9523C16.1601 15.9523 15.4801 15.5994 15.1527 14.9441C14.9008 14.4904 14.8504 13.961 15.0016 13.4821C15.1527 12.978 15.4801 12.5747 15.9334 12.3227C16.3868 12.0706 16.9157 12.0202 17.3942 12.1714C17.8979 12.3227 18.3009 12.6503 18.5527 13.104C19.0565 14.0366 18.7039 15.2213 17.772 15.7254ZM23.9677 13.9862C23.7158 14.818 22.9602 15.3726 22.1039 15.3726C21.9276 15.3726 21.7513 15.3473 21.575 15.2969C20.5424 14.9945 19.9631 13.9106 20.2654 12.9024C20.4165 12.3983 20.7439 11.995 21.1972 11.7429C21.6506 11.4909 22.1795 11.4405 22.658 11.5917C23.1617 11.7429 23.5647 12.0706 23.8165 12.5243C24.0684 12.978 24.1188 13.5073 23.9677 13.9862ZM28.1233 17.3134C27.9722 17.8175 27.6448 18.2208 27.1914 18.4728C26.8892 18.6241 26.587 18.6997 26.2596 18.6997C25.5795 18.6997 24.9247 18.3468 24.5721 17.6915C24.3203 17.2378 24.2699 16.7084 24.421 16.2295C24.5721 15.7254 24.8995 15.3221 25.3529 15.0701C25.8062 14.818 26.3351 14.7676 26.8136 14.9188C27.3174 15.0701 27.7203 15.3978 27.9722 15.8515C28.1988 16.3052 28.2492 16.8345 28.1233 17.3134Z" fill="currentColor" />
    </symbol>
    <symbol id="mapbox-tiling-service-api">
        <path d="M11 11.7143C11 11.3198 11.3198 11 11.7143 11H18.2857C18.6802 11 19 11.3198 19 11.7143V18.2857C19 18.6802 18.6802 19 18.2857 19H11.7143C11.3198 19 11 18.6802 11 18.2857V11.7143Z" fill="currentColor" />
        <path d="M11 21.7143C11 21.3198 11.3198 21 11.7143 21H18.2857C18.6802 21 19 21.3198 19 21.7143V28.2857C19 28.6802 18.6802 29 18.2857 29H11.7143C11.3198 29 11 28.6802 11 28.2857V21.7143Z" fill="currentColor" />
        <path d="M21 11.7143C21 11.3198 21.3198 11 21.7143 11H28.2857C28.6802 11 29 11.3198 29 11.7143V18.2857C29 18.6802 28.6802 19 28.2857 19H21.7143C21.3198 19 21 18.6802 21 18.2857V11.7143Z" fill="currentColor" />
        <path d="M21 21.7143C21 21.3198 21.3198 21 21.7143 21H28.2857C28.6802 21 29 21.3198 29 21.7143V28.2857C29 28.6802 28.6802 29 28.2857 29H21.7143C21.3198 29 21 28.6802 21 28.2857V21.7143Z" fill="currentColor" />
    </symbol>
    <symbol id="maps-matching-api">
        <path d="M35 22.6092L20 31.0099L5 22.6092L9.36134 20.1601L9.43698 20.1111C9.4874 20.209 9.56303 20.2825 9.66387 20.3315L14.6303 23.1235C14.6555 23.1235 14.6555 23.148 14.6807 23.148L19.9748 26.1115L25.2689 23.148L25.3193 23.1235L30.2857 20.3315C30.3109 20.307 30.3361 20.307 30.3613 20.2825C30.437 20.2335 30.4874 20.1845 30.5378 20.1111L30.6134 20.1601L35 22.6092Z" fill="currentColor" />
        <path d="M13.8909 17.0006L10.1598 19.0824L6.42871 17.0006L10.1598 14.8943L13.8909 17.0006Z" fill="currentColor" />
        <path d="M18.9077 19.7927L15.1514 21.899L11.4203 19.7927L15.1514 17.6864L18.9077 19.7927Z" fill="currentColor" />
        <path d="M23.8994 22.6092L20.1684 24.691L16.412 22.6092L20.1684 20.5029L23.8994 22.6092Z" fill="currentColor" />
        <path d="M24.0507 16.9026L20.1684 19.0823L16.412 17.0005L20.3952 14.7718L24.0507 16.9026Z" fill="currentColor" />
        <path d="M28.9162 19.7681L25.1599 21.8989L21.4288 19.7926L25.2859 17.6374L28.9162 19.7681Z" fill="currentColor" />
        <path d="M15.5295 11.882L19.1598 14.0372L15.1514 16.2905L11.4203 14.1842L15.5295 11.882Z" fill="currentColor" />
        <path d="M23.8996 11.392L20.4206 13.3269L16.7651 11.1961L20.1685 9.28572L23.8996 11.392Z" fill="currentColor" />
        <path d="M28.8911 14.184L25.286 16.2168L21.6306 14.0615L25.16 12.0777L28.8911 14.184Z" fill="currentColor" />
        <path d="M33.9076 17.0006L30.1765 19.0824L26.521 16.9271L30.1512 14.8943L33.9076 17.0006Z" fill="currentColor" />
        <path d="M9.63038 20.1111L9.55475 20.1601L9.85727 20.3315C9.75643 20.2825 9.6808 20.209 9.63038 20.1111ZM30.706 20.1111C30.6556 20.1845 30.6052 20.258 30.5295 20.307L30.7816 20.1601L30.706 20.1111Z" fill="currentColor" />
    </symbol>
    <symbol id="matrix-api">
        <path d="M14.75 15.625H10.25C9.75 15.625 9.375 15.25 9.375 14.75V10.25C9.375 9.75 9.75 9.375 10.25 9.375H14.75C15.25 9.375 15.625 9.75 15.625 10.25V14.75C15.625 15.25 15.25 15.625 14.75 15.625Z" fill="currentColor" />
        <path d="M22.25 15.625H17.75C17.25 15.625 16.875 15.25 16.875 14.75V10.25C16.875 9.75 17.25 9.375 17.75 9.375H22.25C22.75 9.375 23.125 9.75 23.125 10.25V14.75C23.125 15.25 22.75 15.625 22.25 15.625Z" fill="currentColor" />
        <path d="M29.75 15.625H25.25C24.75 15.625 24.375 15.25 24.375 14.75V10.25C24.375 9.75 24.75 9.375 25.25 9.375H29.75C30.25 9.375 30.625 9.75 30.625 10.25V14.75C30.625 15.25 30.25 15.625 29.75 15.625Z" fill="currentColor" />
        <path d="M14.75 23.125H10.25C9.75 23.125 9.375 22.75 9.375 22.25V17.75C9.375 17.25 9.75 16.875 10.25 16.875H14.75C15.25 16.875 15.625 17.25 15.625 17.75V22.25C15.625 22.75 15.25 23.125 14.75 23.125Z" fill="currentColor" />
        <path d="M22.25 23.125H17.75C17.25 23.125 16.875 22.75 16.875 22.25V17.75C16.875 17.25 17.25 16.875 17.75 16.875H22.25C22.75 16.875 23.125 17.25 23.125 17.75V22.25C23.125 22.75 22.75 23.125 22.25 23.125Z" fill="currentColor" />
        <path d="M29.75 23.125H25.25C24.75 23.125 24.375 22.75 24.375 22.25V17.75C24.375 17.25 24.75 16.875 25.25 16.875H29.75C30.25 16.875 30.625 17.25 30.625 17.75V22.25C30.625 22.75 30.25 23.125 29.75 23.125Z" fill="currentColor" />
        <path d="M14.75 30.625H10.25C9.75 30.625 9.375 30.25 9.375 29.75V25.25C9.375 24.75 9.75 24.375 10.25 24.375H14.75C15.25 24.375 15.625 24.75 15.625 25.25V29.75C15.625 30.25 15.25 30.625 14.75 30.625Z" fill="currentColor" />
        <path d="M22.25 30.625H17.75C17.25 30.625 16.875 30.25 16.875 29.75V25.25C16.875 24.75 17.25 24.375 17.75 24.375H22.25C22.75 24.375 23.125 24.75 23.125 25.25V29.75C23.125 30.25 22.75 30.625 22.25 30.625Z" fill="currentColor" />
        <path d="M29.75 30.625H25.25C24.75 30.625 24.375 30.25 24.375 29.75V25.25C24.375 24.75 24.75 24.375 25.25 24.375H29.75C30.25 24.375 30.625 24.75 30.625 25.25V29.75C30.625 30.25 30.25 30.625 29.75 30.625Z" fill="currentColor" />
    </symbol>
    <symbol id="navigation-sdk-for-android">
        <path fill-rule="evenodd" clip-rule="evenodd" d="M21.742 6.65942C20.9768 5.30294 19.0232 5.30294 18.258 6.65942L6.67861 27.1866C5.80028 28.7436 7.25011 30.5829 8.96922 30.0925L19.4514 27.1023C19.81 27 20.19 27 20.5486 27.1023L31.0308 30.0925C32.7499 30.5829 34.1997 28.7436 33.3214 27.1866L21.742 6.65942ZM17.5746 20.5281C17.5746 20.818 17.3345 21.0548 17.0405 21.0548C16.7465 21.0548 16.5064 20.818 16.5064 20.5281C16.5064 20.2382 16.7465 20.0014 17.0405 20.0014C17.3345 20.0014 17.5746 20.2382 17.5746 20.5281ZM23.4936 20.5281C23.4936 20.818 23.2535 21.0548 22.9595 21.0548C22.6655 21.0548 22.4254 20.818 22.4254 20.5281C22.4254 20.2382 22.6655 20.0014 22.9595 20.0014C23.2535 20.0014 23.4936 20.2382 23.4936 20.5281ZM15.7812 16.0441L16.8494 17.8706C15.012 18.8563 13.7527 20.6924 13.5714 22.8571H26.4286C26.2424 20.6924 24.988 18.8563 23.1555 17.8706L24.2236 16.0441C24.2824 15.9378 24.2481 15.8073 24.1404 15.7445C24.0326 15.6865 23.9003 15.7204 23.8366 15.8267L22.7586 17.6773C21.9305 17.3052 20.9996 17.0975 20.0049 17.0975C19.0102 17.0975 18.0793 17.3052 17.2512 17.6773L16.1683 15.8267C16.1095 15.7204 15.9723 15.6817 15.8645 15.7445C15.7567 15.8025 15.7176 15.9378 15.7812 16.0441Z" fill="currentColor" />
    </symbol>
    <symbol id="navigation-sdk-for-ios">
        <path fill-rule="evenodd" clip-rule="evenodd" d="M21.742 6.65942C20.9768 5.30294 19.0232 5.30294 18.258 6.65942L6.67861 27.1866C5.80028 28.7436 7.25011 30.5829 8.96922 30.0925L19.4514 27.1023C19.81 27 20.19 27 20.5486 27.1023L31.0308 30.0925C32.7499 30.5829 34.1997 28.7436 33.3214 27.1866L21.742 6.65942ZM23.9857 17.2423C23.9988 17.2336 24.0078 17.2276 24.012 17.2243C23.3023 16.1892 22.2242 16.1613 21.9241 16.1613C21.4651 16.1613 21.0541 16.327 20.7088 16.4663C20.4585 16.5672 20.2427 16.6542 20.0679 16.6542C19.8747 16.6542 19.6536 16.5633 19.4068 16.4619C19.0954 16.3339 18.7432 16.1892 18.3549 16.1892C17.0451 16.1892 15.7143 17.2939 15.7143 19.377C15.7143 20.6757 16.206 22.044 16.8145 22.9248C17.3399 23.6749 17.7969 24.2857 18.4517 24.2857C18.7623 24.2857 18.9899 24.1874 19.2294 24.084C19.4949 23.9694 19.7749 23.8485 20.1985 23.8485C20.6265 23.8485 20.8823 23.962 21.1289 24.0715C21.3585 24.1734 21.58 24.2718 21.9252 24.2718C22.6411 24.2718 23.1118 23.6128 23.5624 22.9527C24.0678 22.2026 24.2794 21.4665 24.2857 21.4322C24.2446 21.4183 22.8728 20.8557 22.8728 19.2655C22.8728 17.9851 23.808 17.3609 23.9857 17.2423ZM22.1073 13.7868C22.1073 14.3354 21.8757 14.884 21.5482 15.2794C21.2008 15.7177 20.5996 16.0434 20.1216 16.0434C20.0669 16.0434 20.0121 16.0359 19.9784 16.0295C19.9721 16.0027 19.9584 15.9191 19.9584 15.8356C19.9584 15.2794 20.2385 14.7308 20.5385 14.3836C20.9207 13.9325 21.5546 13.5918 22.0873 13.5714C22.101 13.6336 22.1073 13.7107 22.1073 13.7868Z" fill="currentColor" />
    </symbol>
    <symbol id="optimization-api">
        <path d="M30 18.75L32.5 16.5C31.875 15.0625 31.875 15.0625 31.3125 13.625L27.9375 13.8125L26.1875 12.0625L26.375 8.6875C24.9375 8.0625 24.9375 8.0625 23.5 7.5L21.25 10H18.75L16.5 7.5C15.0625 8.125 15.0625 8.125 13.625 8.6875L13.8125 12.0625L12.0625 13.8125L8.6875 13.625C8.0625 15.0625 8.0625 15.0625 7.5 16.5L10 18.75V21.25L7.5 23.5C8.125 24.9375 8.125 24.9375 8.6875 26.375L12.0625 26.1875L13.8125 27.9375L13.625 31.3125C15.0625 31.9375 15.0625 31.9375 16.5 32.5L18.75 30H21.25L23.5 32.5C24.9375 31.875 24.9375 31.875 26.375 31.3125L26.1875 27.9375L27.9375 26.1875L31.3125 26.375C31.9375 24.9375 31.9375 24.9375 32.5 23.5L30 21.25V18.75ZM20 25.5625C16.9375 25.5625 14.4375 23.0625 14.4375 20C14.4375 16.9375 16.9375 14.4375 20 14.4375C23.0625 14.4375 25.5625 16.9375 25.5625 20C25.5625 23.0625 23.0625 25.5625 20 25.5625Z" fill="currentColor" />
    </symbol>
    <symbol id="piechart">
        <path d="M27.094 21.0842H18.9158V12.906C18.9158 12.5817 18.6609 12.3268 18.3366 12.3268C13.1933 12.3268 9 16.5202 9 21.6634C9 26.8066 13.1933 31 18.3366 31C23.4798 31 27.6732 26.8066 27.6732 21.6634C27.6732 21.3622 27.4183 21.0842 27.094 21.0842Z" fill="currentColor" />
        <path d="M21.6637 9C21.3393 9 21.0845 9.25485 21.0845 9.57919V18.9158H30.4211C30.7454 18.9158 31.0003 18.661 31.0003 18.3366C31.0003 13.1934 26.8069 9 21.6637 9Z" fill="currentColor" />
    </symbol>
    <symbol id="playground">
        <path d="M16.4286 30C16.4286 29.6055 16.7484 29.2857 17.1429 29.2857H23.5714C23.9659 29.2857 24.2857 29.6055 24.2857 30C24.2857 30.3945 23.9659 30.7143 23.5714 30.7143H17.1429C16.7484 30.7143 16.4286 30.3945 16.4286 30Z" fill="currentColor" />
        <path fill-rule="evenodd" clip-rule="evenodd" d="M8.38348 10.7143C7.98899 10.7143 7.66919 11.0341 7.66919 11.4286V26.8421C7.66919 27.2366 7.98899 27.5564 8.38348 27.5564H32.2181C32.6126 27.5564 32.9323 27.2366 32.9323 26.8421V11.4286C32.9323 11.0341 32.6126 10.7143 32.2181 10.7143H8.38348ZM11.5414 14.9248C11.1469 14.9248 10.8271 15.2446 10.8271 15.6391V22.6315C10.8271 23.026 11.1469 23.3458 11.5414 23.3458H20.6391C21.0336 23.3458 21.3534 23.026 21.3534 22.6315V15.6391C21.3534 15.2446 21.0336 14.9248 20.6391 14.9248H11.5414ZM24.2857 17.1429C23.8912 17.1429 23.5714 17.4627 23.5714 17.8572C23.5714 18.2517 23.8912 18.5715 24.2857 18.5715H29.2857C29.6802 18.5715 30 18.2517 30 17.8572C30 17.4627 29.6802 17.1429 29.2857 17.1429H24.2857ZM23.5714 20.7143C23.5714 20.3198 23.8912 20 24.2857 20H29.2857C29.6802 20 30 20.3198 30 20.7143C30 21.1088 29.6802 21.4286 29.2857 21.4286H24.2857C23.8912 21.4286 23.5714 21.1088 23.5714 20.7143Z" fill="currentColor" />
    </symbol>
    <symbol id="raster-tiles-api">
        <path d="M30 9.28572C30.3945 9.28572 30.7143 9.60552 30.7143 10V14.6939C30.7143 15.0884 30.3945 15.4082 30 15.4082H25.3061C24.9116 15.4082 24.5918 15.0884 24.5918 14.6939V10C24.5918 9.60552 24.9116 9.28572 25.3061 9.28572H30Z" fill="currentColor" />
        <path d="M9.99999 24.5918C9.6055 24.5918 9.28571 24.9116 9.28571 25.3061V30C9.28571 30.3945 9.6055 30.7143 9.99999 30.7143H14.6939C15.0884 30.7143 15.4082 30.3945 15.4082 30V25.3061C15.4082 24.9116 15.0884 24.5918 14.6939 24.5918H9.99999Z" fill="currentColor" />
        <path d="M17.6531 24.5918C17.2586 24.5918 16.9388 24.9116 16.9388 25.3061V30C16.9388 30.3945 17.2586 30.7143 17.6531 30.7143H22.3469C22.7414 30.7143 23.0612 30.3945 23.0612 30V25.3061C23.0612 24.9116 22.7414 24.5918 22.3469 24.5918H17.6531Z" fill="currentColor" />
        <path d="M30.7143 17.6531C30.7143 17.2586 30.3945 16.9388 30 16.9388H25.3061C24.9116 16.9388 24.5918 17.2586 24.5918 17.6531V22.3469C24.5918 22.7414 24.9116 23.0612 25.3061 23.0612H30C30.3945 23.0612 30.7143 22.7414 30.7143 22.3469V17.6531Z" fill="currentColor" />
        <path d="M30 24.5918C30.3945 24.5918 30.7143 24.9116 30.7143 25.3061V30C30.7143 30.3945 30.3945 30.7143 30 30.7143H25.3061C24.9116 30.7143 24.5918 30.3945 24.5918 30V25.3061C24.5918 24.9116 24.9116 24.5918 25.3061 24.5918H30Z" fill="currentColor" />
        <path d="M14.9671 13.2375H16.5197C17.3853 13.2375 17.8937 13.7802 17.8937 14.5455C17.8937 15.3386 17.3853 15.8674 16.5197 15.8674H14.9671V13.2375Z" fill="currentColor" />
        <path fill-rule="evenodd" clip-rule="evenodd" d="M9.28571 10C9.28571 9.60552 9.6055 9.28572 9.99999 9.28572H22.3469C22.7414 9.28572 23.0612 9.60552 23.0612 10V22.3469C23.0612 22.7414 22.7414 23.0612 22.3469 23.0612H9.99999C9.6055 23.0612 9.28571 22.7414 9.28571 22.3469V10ZM20.7653 20.7653L18.196 17.1614C19.1715 16.6744 19.7898 15.7282 19.7898 14.5455C19.7898 12.7505 18.4295 11.5816 16.5197 11.5816H13.1122V20.7653H14.9671V17.5232H16.3273L18.6769 20.7653H20.7653Z" fill="currentColor" />
    </symbol>
    <symbol id="search-sdk-for-android">
        <path fill-rule="evenodd" clip-rule="evenodd" d="M10 17.2045C10 11.6371 14.4942 7.14286 20.0616 7.14286C25.6291 7.14286 30.1233 11.7041 30.1233 17.2045C30.1233 22.4182 21.723 32.0174 20.6886 33.1995C20.645 33.2493 20.6145 33.2841 20.5983 33.3031C20.4641 33.5044 20.2629 33.5714 20.0616 33.5714C19.8604 33.5714 19.6592 33.4373 19.525 33.3031C19.5103 33.2859 19.4838 33.2556 19.4465 33.2128C18.4663 32.0881 10 22.3741 10 17.2045ZM17.3209 18.1459C17.3209 18.4558 17.0617 18.7089 16.7444 18.7089C16.4271 18.7089 16.1679 18.4558 16.1679 18.1459C16.1679 17.836 16.4271 17.5829 16.7444 17.5829C17.0617 17.5829 17.3209 17.836 17.3209 18.1459ZM23.7096 18.1459C23.7096 18.4558 23.4505 18.7089 23.1331 18.7089C22.8158 18.7089 22.5567 18.4558 22.5567 18.1459C22.5567 17.836 22.8158 17.5829 23.1331 17.5829C23.4505 17.5829 23.7096 17.836 23.7096 18.1459ZM15.3852 13.3526L16.5381 15.305C14.5549 16.3587 13.1957 18.3215 13 20.6355H26.8775C26.6766 18.3215 25.3227 16.3587 23.3447 15.305L24.4976 13.3526C24.5611 13.239 24.5241 13.0995 24.4077 13.0323C24.2914 12.9704 24.1486 13.0065 24.0798 13.1202L22.9163 15.0984C22.0225 14.7007 21.0177 14.4786 19.9441 14.4786C18.8704 14.4786 17.8656 14.7007 16.9718 15.0984L15.803 13.1202C15.7395 13.0065 15.5915 12.9652 15.4751 13.0323C15.3588 13.0943 15.3164 13.239 15.3852 13.3526Z" fill="currentColor" />
    </symbol>
    <symbol id="search-sdk-for-ios">
        <path fill-rule="evenodd" clip-rule="evenodd" d="M10 17.2045C10 11.6371 14.4942 7.14286 20.0616 7.14286C25.6291 7.14286 30.1233 11.7041 30.1233 17.2045C30.1233 22.4182 21.723 32.0174 20.6886 33.1995C20.645 33.2493 20.6145 33.2841 20.5983 33.3031C20.4641 33.5044 20.2629 33.5714 20.0616 33.5714C19.8604 33.5714 19.6592 33.4373 19.525 33.3031C19.5103 33.2859 19.4838 33.2556 19.4465 33.2128C18.4663 32.0881 10 22.3741 10 17.2045ZM24.65 15.1114C24.6653 15.1016 24.6757 15.0949 24.6806 15.0912C23.8527 13.9319 22.5949 13.9007 22.2448 13.9007C21.7092 13.9007 21.2298 14.0863 20.8269 14.2422C20.5349 14.3553 20.2831 14.4528 20.0792 14.4528C19.8539 14.4528 19.5959 14.351 19.308 14.2374C18.9446 14.094 18.5337 13.9319 18.0807 13.9319C16.5526 13.9319 15 15.1692 15 17.5023C15 18.9568 15.5736 20.4894 16.2836 21.4759C16.8966 22.3159 17.4297 23 18.1937 23C18.556 23 18.8216 22.8899 19.1009 22.7741C19.4107 22.6458 19.7374 22.5104 20.2315 22.5104C20.731 22.5104 21.0294 22.6375 21.3171 22.7601C21.5849 22.8742 21.8434 22.9844 22.246 22.9844C23.0813 22.9844 23.6304 22.2463 24.1561 21.5071C24.7457 20.667 24.9926 19.8425 25 19.8041C24.9521 19.7885 23.3516 19.1584 23.3516 17.3774C23.3516 15.9433 24.4427 15.2442 24.65 15.1114ZM22.4585 11.2412C22.4585 11.8557 22.1883 12.4702 21.8063 12.913C21.4009 13.4038 20.6995 13.7687 20.1419 13.7687C20.078 13.7687 20.0141 13.7603 19.9748 13.7531C19.9674 13.7231 19.9515 13.6295 19.9515 13.5359C19.9515 12.913 20.2782 12.2985 20.6283 11.9097C21.0742 11.4044 21.8137 11.0228 22.4352 11C22.4512 11.0696 22.4585 11.156 22.4585 11.2412Z" fill="currentColor" />
    </symbol>
    <symbol id="search-sdk-for-js">
        <path fill-rule="evenodd" clip-rule="evenodd" d="M10 17.2045C10 11.6371 14.4942 7.14286 20.0616 7.14286C25.6291 7.14286 30.1233 11.7041 30.1233 17.2045C30.1233 22.4182 21.723 32.0174 20.6886 33.1995C20.645 33.2493 20.6145 33.2841 20.5983 33.3031C20.4641 33.5044 20.2629 33.5714 20.0616 33.5714C19.8604 33.5714 19.6592 33.4373 19.525 33.3031C19.5103 33.2859 19.4838 33.2556 19.4465 33.2128C18.4663 32.0881 10 22.3741 10 17.2045ZM24.65 15.1114C24.6653 15.1016 24.6757 15.0949 24.6806 15.0912C23.8527 13.9319 22.5949 13.9007 22.2448 13.9007C21.7092 13.9007 21.2298 14.0863 20.8269 14.2422C20.5349 14.3553 20.2831 14.4528 20.0792 14.4528C19.8539 14.4528 19.5959 14.351 19.308 14.2374C18.9446 14.094 18.5337 13.9319 18.0807 13.9319C16.5526 13.9319 15 15.1692 15 17.5023C15 18.9568 15.5736 20.4894 16.2836 21.4759C16.8966 22.3159 17.4297 23 18.1937 23C18.556 23 18.8216 22.8899 19.1009 22.7741C19.4107 22.6458 19.7374 22.5104 20.2315 22.5104C20.731 22.5104 21.0294 22.6375 21.3171 22.7601C21.5849 22.8742 21.8434 22.9844 22.246 22.9844C23.0813 22.9844 23.6304 22.2463 24.1561 21.5071C24.7457 20.667 24.9926 19.8425 25 19.8041C24.9521 19.7885 23.3516 19.1584 23.3516 17.3774C23.3516 15.9433 24.4427 15.2442 24.65 15.1114ZM22.4585 11.2412C22.4585 11.8557 22.1883 12.4702 21.8063 12.913C21.4009 13.4038 20.6995 13.7687 20.1419 13.7687C20.078 13.7687 20.0141 13.7603 19.9748 13.7531C19.9674 13.7231 19.9515 13.6295 19.9515 13.5359C19.9515 12.913 20.2782 12.2985 20.6283 11.9097C21.0742 11.4044 21.8137 11.0228 22.4352 11C22.4512 11.0696 22.4585 11.156 22.4585 11.2412Z" fill="currentColor" />
    </symbol>
    <symbol id="static-images-api">
        <path fill-rule="evenodd" clip-rule="evenodd" d="M9.28569 11.4286C8.49671 11.4286 7.85712 12.0682 7.85712 12.8571V27.8571C7.85712 28.6461 8.49671 29.2857 9.28569 29.2857H30.7143C31.5032 29.2857 32.1428 28.6461 32.1428 27.8571V12.8571C32.1428 12.0682 31.5032 11.4286 30.7143 11.4286H9.28569ZM27.8572 16.0714C27.8572 17.0576 27.0577 17.8571 26.0714 17.8571C25.0852 17.8571 24.2857 17.0576 24.2857 16.0714C24.2857 15.0852 25.0852 14.2857 26.0714 14.2857C27.0577 14.2857 27.8572 15.0852 27.8572 16.0714ZM16.5974 17.277C16.8637 16.8627 17.4597 16.8359 17.7621 17.2247L21.6438 22.2156C21.9084 22.5557 22.4116 22.5859 22.715 22.2798L24.36 20.6199C24.6777 20.2994 25.2093 20.3501 25.4606 20.7249L28.5398 25.3164C28.8581 25.791 28.518 26.4286 27.9466 26.4286H12.0226C11.4575 26.4286 11.1161 25.8034 11.4217 25.328L16.5974 17.277Z" fill="currentColor" />
    </symbol>
    <symbol id="static-tiles-api">
        <path d="M9.28571 25.3571C9.28571 24.9345 9.62834 24.5918 10.051 24.5918H14.6428C15.0655 24.5918 15.4082 24.9345 15.4082 25.3571V29.949C15.4082 30.3717 15.0655 30.7143 14.6428 30.7143H10.051C9.62834 30.7143 9.28571 30.3717 9.28571 29.949V25.3571Z" fill="currentColor" />
        <path d="M16.9388 25.3571C16.9388 24.9345 17.2814 24.5918 17.7041 24.5918H22.2959C22.7186 24.5918 23.0612 24.9345 23.0612 25.3571V29.949C23.0612 30.3717 22.7186 30.7143 22.2959 30.7143H17.7041C17.2814 30.7143 16.9388 30.3717 16.9388 29.949V25.3571Z" fill="currentColor" />
        <path d="M29.949 9.28572C30.3716 9.28572 30.7143 9.62836 30.7143 10.051V14.6429C30.7143 15.0655 30.3716 15.4082 29.949 15.4082H25.3571C24.9345 15.4082 24.5918 15.0655 24.5918 14.6429V10.051C24.5918 9.62836 24.9345 9.28572 25.3571 9.28572L29.949 9.28572Z" fill="currentColor" />
        <path d="M29.949 16.9388C30.3716 16.9388 30.7143 17.2814 30.7143 17.7041V22.2959C30.7143 22.7186 30.3716 23.0612 29.949 23.0612H25.3571C24.9345 23.0612 24.5918 22.7186 24.5918 22.2959V17.7041C24.5918 17.2814 24.9345 16.9388 25.3571 16.9388H29.949Z" fill="currentColor" />
        <path d="M29.949 24.5918C30.3716 24.5918 30.7143 24.9345 30.7143 25.3571V29.949C30.7143 30.3717 30.3716 30.7143 29.949 30.7143H25.3571C24.9345 30.7143 24.5918 30.3717 24.5918 29.949V25.3571C24.5918 24.9345 24.9345 24.5918 25.3571 24.5918H29.949Z" fill="currentColor" />
        <path fill-rule="evenodd" clip-rule="evenodd" d="M10.051 9.28572C9.62834 9.28572 9.28571 9.62836 9.28571 10.051V22.2959C9.28571 22.7186 9.62835 23.0612 10.051 23.0612H22.2959C22.7186 23.0612 23.0612 22.7186 23.0612 22.2959V10.051C23.0612 9.62836 22.7186 9.28572 22.2959 9.28572H10.051ZM13.2114 14.0924C13.2114 12.5618 14.5578 11.5816 16.3152 11.5816C17.8033 11.5816 18.852 12.2932 19.4048 13.2599L18.1009 14.2132C17.6474 13.5687 17.0805 13.1928 16.3152 13.1928C15.6916 13.1928 15.1531 13.4613 15.1531 14.0521C15.1531 14.5623 15.5641 14.7771 16.2443 15.0725L17.3072 15.5156C18.7812 16.1332 19.6173 16.8448 19.6173 18.1069C19.6173 19.7583 18.2001 20.7653 16.3435 20.7653C14.7279 20.7653 13.424 19.9866 12.7296 18.8051L14.0476 17.8652C14.5578 18.5365 15.2239 19.1541 16.3435 19.1541C17.1655 19.1541 17.6757 18.7916 17.6757 18.174C17.6757 17.5967 17.2222 17.3953 16.4853 17.073L15.479 16.6434C14.1468 16.0661 13.2114 15.341 13.2114 14.0924Z" fill="currentColor" />
    </symbol>
    <symbol id="style-specification">
        <path d="M24.5 8L29 12.5H25.4C24.9029 12.5 24.5 12.0971 24.5 11.6V8Z" fill="currentColor" />
        <path fill-rule="evenodd" clip-rule="evenodd" d="M11 9.5C11 8.67157 11.6716 8 12.5 8H23V12.5C23 13.3284 23.6716 14 24.5 14H29V30.5C29 31.3284 28.3284 32 27.5 32H12.5C11.6716 32 11 31.3284 11 30.5V9.5ZM14.75 17C14.3358 17 14 17.3358 14 17.75C14 18.1642 14.3358 18.5 14.75 18.5H20.75C21.1642 18.5 21.5 18.1642 21.5 17.75C21.5 17.3358 21.1642 17 20.75 17H14.75ZM14 22.25C14 21.8358 14.3358 21.5 14.75 21.5H25.25C25.6642 21.5 26 21.8358 26 22.25C26 22.6642 25.6642 23 25.25 23H14.75C14.3358 23 14 22.6642 14 22.25ZM14.75 26C14.3358 26 14 26.3358 14 26.75C14 27.1642 14.3358 27.5 14.75 27.5H25.25C25.6642 27.5 26 27.1642 26 26.75C26 26.3358 25.6642 26 25.25 26H14.75Z" fill="currentColor" />
    </symbol>
    <symbol id="styles-api">
        <path d="M32 16.9486C31.8524 17.1452 31.7265 17.3635 31.5552 17.5357C29.5565 19.5437 27.5511 21.5443 25.5477 23.5476C25.4875 23.6079 25.434 23.6757 25.3995 23.715C22.3575 20.6745 19.3311 17.6496 16.2918 14.6118C16.3189 14.5834 16.3812 14.5156 16.4462 14.4505C18.4496 12.4472 20.4516 10.4426 22.4604 8.4454C22.6324 8.2732 22.8504 8.14711 23.0474 8C23.1726 8 23.2972 8 23.4225 8C23.5694 8.09762 23.7312 8.17965 23.8605 8.29693C24.1036 8.51658 24.3304 8.75453 24.5592 8.9891C24.8971 9.33416 24.9465 9.62431 24.7508 10.0738C24.7068 10.1748 24.6655 10.2772 24.6053 10.4229C24.7136 10.3795 24.7644 10.3619 24.8131 10.3388C25.4367 10.0487 25.6581 10.0873 26.1422 10.5714C26.9262 11.3551 27.7109 12.1381 28.4942 12.9231C28.8883 13.3177 28.9262 13.6966 28.6188 14.1563C28.1327 14.8823 27.6446 15.607 27.1578 16.3331C27.1178 16.3921 27.0833 16.4551 27.0108 16.5751C27.1368 16.4938 27.2024 16.4538 27.2661 16.411C27.9763 15.929 28.6859 15.4464 29.3968 14.965C29.893 14.6288 30.2336 14.6627 30.6628 15.0904C30.9614 15.3881 31.2681 15.6782 31.5538 15.9873C31.7197 16.167 31.8524 16.3778 32 16.5744V16.9493V16.9486Z" fill="currentColor" />
        <path d="M8.00135 28.708C8.04198 28.5514 8.07854 28.3934 8.12458 28.2382C8.31347 27.6029 8.6696 27.0748 9.21733 26.7054C10.9892 25.5095 12.7698 24.3258 14.5511 23.1435C14.9357 22.8886 15.2397 22.5815 15.3534 22.1219C15.5064 21.5036 15.3155 20.985 14.8768 20.545C14.348 20.0142 13.8158 19.4854 13.2864 18.9546C12.8307 18.4977 12.8294 18.0665 13.2817 17.6123C13.8165 17.0754 14.3527 16.5412 14.889 16.0063C14.9377 15.9575 14.9905 15.9134 15.0318 15.8762C18.0623 18.9051 21.0819 21.9239 24.1124 24.9522C24.1131 24.9455 24.1171 24.9658 24.109 24.9739C23.4976 25.5881 22.8937 26.2098 22.2701 26.8118C21.9215 27.1487 21.4624 27.1189 21.0989 26.7616C20.5423 26.2139 19.9966 25.6553 19.4394 25.1082C18.8707 24.5489 18.1679 24.4119 17.5186 24.7916C17.2546 24.9455 17.023 25.1997 16.8504 25.4573C15.8456 26.9535 14.8727 28.4707 13.8666 29.9662C13.5592 30.4231 13.2329 30.8895 12.828 31.2556C11.9986 32.0061 11.0041 32.1851 9.94719 31.8108C8.88964 31.4366 8.26811 30.6631 8.04469 29.5669C8.03385 29.514 8.0149 29.4632 8 29.411C8 29.1764 8 28.9425 8 28.708H8.00135ZM10.9797 30.1594C11.5985 30.1547 12.1117 29.6408 12.1151 29.0218C12.1185 28.4002 11.5823 27.8673 10.9621 27.8755C10.3406 27.8836 9.83074 28.3975 9.82938 29.0157C9.82803 29.6455 10.3494 30.1642 10.979 30.1594H10.9797Z" fill="currentColor" />
    </symbol>
    <symbol id="threebox">
        <path fill-rule="evenodd" clip-rule="evenodd" d="M18.9999 6.29174C19.6188 5.93441 20.3813 5.93441 21.0001 6.29174L26.1857 9.28602L31.332 12.2569L27.4545 14.7244C27.105 14.9468 27.002 15.4104 27.2244 15.7598C27.4468 16.1093 27.9103 16.2123 28.2598 15.9899L32.1884 13.4899C32.2219 13.4686 32.2531 13.445 32.2821 13.4196C32.3407 13.6088 32.3718 13.8082 32.3717 14.012L32.3714 20L32.3717 25.988C32.3718 26.7026 31.9905 27.3629 31.3717 27.7202L26.1857 30.714L21.0001 33.7082C20.919 33.7551 20.8354 33.7958 20.75 33.8303V28.5714C20.75 28.1572 20.4142 27.8214 20 27.8214C19.5858 27.8214 19.25 28.1572 19.25 28.5714V33.8303C19.1646 33.7958 19.081 33.7551 18.9999 33.7082L13.8143 30.714L8.62837 27.7202C8.00948 27.3629 7.62824 26.7026 7.62828 25.988L7.62858 20L7.62828 14.012C7.62827 13.8805 7.64117 13.7508 7.66609 13.6246L11.383 15.9899C11.7325 16.2123 12.1961 16.1093 12.4184 15.7598C12.6408 15.4104 12.5378 14.9468 12.1884 14.7244L8.48733 12.3692C8.53283 12.3376 8.57987 12.3078 8.62836 12.2798L13.8143 9.28602L18.9999 6.29174ZM19.4607 17.8958C19.4607 16.3482 20.7751 15.3571 22.4907 15.3571C23.9434 15.3571 24.9672 16.0767 25.5068 17.0541L24.2339 18.018C23.7912 17.3663 23.2378 16.9862 22.4907 16.9862C21.8819 16.9862 21.3562 17.2577 21.3562 17.8551C21.3562 18.3709 21.7574 18.5881 22.4215 18.8868L23.4591 19.3348C24.898 19.9593 25.7143 20.6788 25.7143 21.9549C25.7143 23.6247 24.3308 24.6429 22.5183 24.6429C20.9411 24.6429 19.6683 23.8555 18.9903 22.6608L20.277 21.7105C20.7751 22.3893 21.4253 23.0138 22.5183 23.0138C23.3208 23.0138 23.8188 22.6472 23.8188 22.0228C23.8188 21.439 23.3761 21.2354 22.6567 20.9096L21.6744 20.4751C20.3739 19.8914 19.4607 19.1583 19.4607 17.8958ZM15.7989 15.5201H17.6667V22.0906C17.6667 23.8283 16.629 24.6429 14.8858 24.6429C14.4015 24.6429 13.9588 24.575 13.5714 24.48V22.9188C13.6432 22.924 13.7123 22.9292 13.779 22.9342C14.0593 22.9553 14.2945 22.9731 14.4846 22.9731C15.37 22.9731 15.7989 22.7015 15.7989 21.9006V15.5201Z" fill="currentColor"/>
    </symbol>
    <symbol id="tilequery-api">
        <path fill-rule="evenodd" clip-rule="evenodd" d="M5.34483 20.2521L14.3578 10.7589L23.3758 20.2521L14.3578 29.7452L5.34483 20.2521ZM18.5714 18.8L17.7143 19.5714L17.7143 20.4286L18.5714 21.2L18.5714 21.2C18.3786 21.6929 18.3786 21.6929 18.1643 22.1857L17.0071 22.1214L16.4071 22.7214L16.4714 23.8786L16.4714 23.8786C15.9786 24.0714 15.9785 24.0714 15.4857 24.2857L14.7143 23.4286L13.8571 23.4286L13.0857 24.2857C12.5929 24.0929 12.5928 24.0929 12.1 23.8786L12.1 23.8786L12.1643 22.7214L11.5643 22.1214L10.4071 22.1857C10.3114 21.9412 10.2632 21.818 10.2128 21.6957C10.1615 21.5715 10.1079 21.4483 9.99998 21.2L10.8571 20.4286L10.8571 19.5714L9.99999 18.8L10 18.8C10.1928 18.3071 10.1928 18.3071 10.4071 17.8143L11.5643 17.8786L12.1643 17.2786L12.1 16.1214C12.3445 16.0257 12.4677 15.9775 12.59 15.9271C12.7142 15.8758 12.8374 15.8222 13.0857 15.7143L13.8571 16.5714L14.7143 16.5714L15.4857 15.7143C15.7302 15.81 15.8534 15.8582 15.9757 15.9087C16.0999 15.9599 16.2231 16.0135 16.4714 16.1214L16.4071 17.2786L17.0071 17.8786L18.1643 17.8143C18.3571 18.3071 18.3571 18.3071 18.5714 18.7999L18.5714 18.8ZM12.3786 20C12.3786 21.05 13.2357 21.9071 14.2857 21.9071C15.3357 21.9071 16.1928 21.05 16.1928 20C16.1928 18.95 15.3357 18.0929 14.2857 18.0929C13.2357 18.0929 12.3786 18.95 12.3786 20Z" fill="currentColor"/>
        <path d="M22.2902 10.7143L31.351 20.2519L22.2902 29.7896L25.2262 29.7896L34.2857 20.2519L25.2262 10.7143L22.2902 10.7143Z" fill="currentColor"/>
        <path d="M16.8397 10.7143L18.7387 12.7132L25.9005 20.2519L18.7387 27.7907L16.8397 29.7896L19.7744 29.7896L28.8352 20.2519L19.7744 10.7143L16.8397 10.7143Z" fill="currentColor"/>
    </symbol>
    <symbol id="traffic-signs">
        <path d="M29.8418 21.0292H26.4076V18.9094L30.5949 15.0691C31.3782 14.3625 30.866 13.0415 29.8418 13.0415H26.4076V11C26.4076 10.4477 25.9599 10 25.4076 10H14.5746C14.0224 10 13.5746 10.4477 13.5746 11V13.1029L10.1405 13.0722C9.08611 13.0722 8.60412 14.3932 9.38736 15.0998L13.6048 18.9401V21.0599H10.1706C9.11624 21.0599 8.63425 22.381 9.41748 23.0876L13.6349 26.9278V29C13.6349 29.5523 14.0826 30 14.6349 30H25.4679C26.0202 30 26.4679 29.5523 26.4679 29V26.8971L30.6552 23.0568C31.3782 22.3502 30.8962 21.0292 29.8418 21.0292ZM19.9911 26.8971C18.3945 26.8971 17.0992 25.576 17.0992 23.9478C17.0992 22.3195 18.3945 20.9985 19.9911 20.9985C21.5877 20.9985 22.8831 22.3195 22.8831 23.9478C22.8831 25.576 21.5877 26.8971 19.9911 26.8971ZM19.9911 18.9708C18.3945 18.9708 17.0992 17.6498 17.0992 16.0215C17.0992 14.3932 18.3945 13.0722 19.9911 13.0722C21.5877 13.0722 22.8831 14.3932 22.8831 16.0215C22.8831 17.6498 21.5877 18.9708 19.9911 18.9708Z" fill="currentColor"/>
    </symbol>
    <symbol id="uploads-api">
        <path fill-rule="evenodd" clip-rule="evenodd" d="M30 16.7944L30 16.7857C30 12.6436 26.6421 9.28572 22.5 9.28572C19.6527 9.28572 17.176 10.8723 15.9058 13.2097C15.2027 12.5482 14.2558 12.1429 13.2143 12.1429C11.0446 12.1429 9.28571 13.9017 9.28571 16.0714C9.28571 16.3108 9.30712 16.5451 9.34812 16.7727C6.81873 17.6373 5 20.0348 5 22.8572C5 26.1661 7.50004 28.8912 10.7143 29.2465V29.2857H27.8571C31.4075 29.2857 34.2857 26.4076 34.2857 22.8572C34.2857 20.0581 32.4968 17.6769 30 16.7944ZM19.0969 16.3612C19.3823 16.023 19.9034 16.023 20.1888 16.3612L24.528 21.5036C24.9199 21.968 24.5898 22.6786 23.9821 22.6786H22.1429V29.2857H17.1429V22.6786H15.3036C14.6959 22.6786 14.3658 21.968 14.7577 21.5036L19.0969 16.3612Z" fill="currentColor"/>
    </symbol>
    <symbol id="vector-tiles-api">
        <path d="M29.949 9.28572C30.3716 9.28572 30.7143 9.62836 30.7143 10.051V14.6429C30.7143 15.0655 30.3716 15.4082 29.949 15.4082H25.3571C24.9345 15.4082 24.5918 15.0655 24.5918 14.6429V10.051C24.5918 9.62836 24.9345 9.28572 25.3571 9.28572H29.949Z" fill="currentColor"/>
        <path d="M10.051 24.5918C9.62834 24.5918 9.28571 24.9345 9.28571 25.3571V29.949C9.28571 30.3717 9.62834 30.7143 10.051 30.7143H14.6428C15.0655 30.7143 15.4082 30.3717 15.4082 29.949V25.3571C15.4082 24.9345 15.0655 24.5918 14.6428 24.5918H10.051Z" fill="currentColor"/>
        <path d="M17.7041 24.5918C17.2814 24.5918 16.9388 24.9345 16.9388 25.3571V29.949C16.9388 30.3717 17.2814 30.7143 17.7041 30.7143H22.2959C22.7186 30.7143 23.0612 30.3717 23.0612 29.949V25.3571C23.0612 24.9345 22.7186 24.5918 22.2959 24.5918H17.7041Z" fill="currentColor"/>
        <path d="M30.7143 17.7041C30.7143 17.2814 30.3716 16.9388 29.949 16.9388H25.3571C24.9345 16.9388 24.5918 17.2814 24.5918 17.7041V22.2959C24.5918 22.7186 24.9345 23.0612 25.3571 23.0612H29.949C30.3716 23.0612 30.7143 22.7186 30.7143 22.2959V17.7041Z" fill="currentColor"/>
        <path d="M29.949 24.5918C30.3716 24.5918 30.7143 24.9345 30.7143 25.3571V29.949C30.7143 30.3717 30.3716 30.7143 29.949 30.7143H25.3571C24.9345 30.7143 24.5918 30.3717 24.5918 29.949V25.3571C24.5918 24.9345 24.9345 24.5918 25.3571 24.5918H29.949Z" fill="currentColor"/>
        <path fill-rule="evenodd" clip-rule="evenodd" d="M9.28571 10.051C9.28571 9.62836 9.62835 9.28572 10.051 9.28572H22.2959C22.7186 9.28572 23.0612 9.62836 23.0612 10.051V22.2959C23.0612 22.7186 22.7186 23.0612 22.2959 23.0612H10.051C9.62835 23.0612 9.28571 22.7186 9.28571 22.2959V10.051ZM18.3106 12.3469L16.1649 16.9961L14.0192 12.3469H11.5816L15.7872 20.7653H16.5597L20.7653 12.3469H18.3106Z" fill="currentColor"/>
    </symbol>
    <symbol id="vision-sdk-for-android">
        <path d="M9.2857 14.2857C8.93132 14.2857 8.57141 13.9819 8.57141 13.6529V9.20423C8.57141 8.84985 8.84985 8.57141 9.20423 8.57141H13.5714C13.9258 8.57141 14.2857 8.93132 14.2857 9.2857C14.2857 9.64007 13.9005 9.99998 13.5714 9.99998H9.99998V13.6529C9.99998 13.9819 9.64007 14.2857 9.2857 14.2857Z" fill="currentColor"/>
        <path d="M30.7142 14.2857C31.0686 14.2857 31.4285 13.9819 31.4285 13.6529V9.20423C31.4285 8.84985 31.1501 8.57141 30.7957 8.57141H26.4285C26.0742 8.57141 25.7142 8.93132 25.7142 9.2857C25.7142 9.64007 26.0995 9.99998 26.4285 9.99998H30V13.6529C30 13.9819 30.3599 14.2857 30.7142 14.2857Z" fill="currentColor"/>
        <path d="M30.7142 25.7143C31.0686 25.7143 31.4285 26.018 31.4285 26.3471L31.4285 30.7957C31.4285 31.1501 31.1501 31.4286 30.7957 31.4286L26.4285 31.4286C26.0742 31.4286 25.7142 31.0686 25.7142 30.7143C25.7142 30.3599 26.0995 30 26.4285 30L30 30L30 26.3471C30 26.018 30.3599 25.7143 30.7142 25.7143Z" fill="currentColor"/>
        <path d="M9.2857 25.7143C8.93132 25.7143 8.57141 26.018 8.57141 26.3471L8.57141 30.7957C8.57141 31.1501 8.84985 31.4286 9.20423 31.4286L13.5714 31.4286C13.9258 31.4286 14.2857 31.0686 14.2857 30.7143C14.2857 30.3599 13.9005 30 13.5714 30L9.99998 30L9.99998 26.3471C9.99998 26.018 9.64007 25.7143 9.2857 25.7143Z" fill="currentColor"/>
        <path d="M15.8567 21.4768C16.2683 21.4768 16.6044 21.1453 16.6044 20.7394C16.6044 20.3335 16.2683 20.0021 15.8567 20.0021C15.4451 20.0021 15.109 20.3335 15.109 20.7394C15.109 21.1453 15.4451 21.4768 15.8567 21.4768ZM24.1433 21.4768C24.5549 21.4768 24.891 21.1453 24.891 20.7394C24.891 20.3335 24.5549 20.0021 24.1433 20.0021C23.7317 20.0021 23.3956 20.3335 23.3956 20.7394C23.3956 21.1453 23.7317 21.4768 24.1433 21.4768ZM15.5892 17.0188L14.0937 14.4618C14.0046 14.3129 14.0595 14.1235 14.2104 14.0424C14.3613 13.9544 14.5534 14.0085 14.6357 14.1574L16.1517 16.7482C17.311 16.2274 18.6143 15.9365 20.0069 15.9365C21.3994 15.9365 22.7027 16.2274 23.862 16.7482L25.3712 14.1574C25.4604 14.0085 25.6456 13.9612 25.7965 14.0424C25.9474 14.1303 25.9954 14.3129 25.9131 14.4618L24.4177 17.0188C26.9832 18.3988 28.7393 20.9694 29 24H11C11.2538 20.9694 13.0168 18.3988 15.5892 17.0188Z" fill="currentColor"/>
    </symbol>
    <symbol id="vision-sdk-for-ios">
        <path d="M9.2857 14.2857C8.93132 14.2857 8.57141 13.9819 8.57141 13.6529V9.20423C8.57141 8.84985 8.84985 8.57141 9.20423 8.57141H13.5714C13.9258 8.57141 14.2857 8.93132 14.2857 9.2857C14.2857 9.64007 13.9005 9.99998 13.5714 9.99998H9.99998V13.6529C9.99998 13.9819 9.64007 14.2857 9.2857 14.2857Z" fill="currentColor"/>
        <path d="M30.7143 14.2857C31.0687 14.2857 31.4286 13.9819 31.4286 13.6529V9.20423C31.4286 8.84985 31.1502 8.57141 30.7958 8.57141H26.4286C26.0742 8.57141 25.7143 8.93132 25.7143 9.2857C25.7143 9.64007 26.0995 9.99998 26.4286 9.99998H30V13.6529C30 13.9819 30.3599 14.2857 30.7143 14.2857Z" fill="currentColor"/>
        <path d="M30.7143 25.7143C31.0687 25.7143 31.4286 26.018 31.4286 26.3471L31.4286 30.7957C31.4286 31.1501 31.1502 31.4286 30.7958 31.4286L26.4286 31.4286C26.0742 31.4286 25.7143 31.0686 25.7143 30.7143C25.7143 30.3599 26.0995 30 26.4286 30L30 30L30 26.3471C30 26.018 30.3599 25.7143 30.7143 25.7143Z" fill="currentColor"/>
        <path d="M9.2857 25.7143C8.93132 25.7143 8.57141 26.018 8.57141 26.3471L8.57141 30.7957C8.57141 31.1501 8.84985 31.4286 9.20423 31.4286L13.5714 31.4286C13.9258 31.4286 14.2857 31.0686 14.2857 30.7143C14.2857 30.3599 13.9005 30 13.5714 30L9.99998 30L9.99998 26.3471C9.99998 26.018 9.64007 25.7143 9.2857 25.7143Z" fill="currentColor"/>
        <path d="M26.0179 16.7861C25.9263 16.8568 24.3091 17.7636 24.3091 19.78C24.3091 22.1122 26.367 22.9373 26.4286 22.9577C26.4191 23.008 26.1016 24.0877 25.3436 25.1878C24.6676 26.1559 23.9617 27.1224 22.8877 27.1224C21.8138 27.1224 21.5374 26.5016 20.2977 26.5016C19.0895 26.5016 18.6599 27.1428 17.6776 27.1428C16.6953 27.1428 16.0099 26.247 15.2218 25.1469C14.3089 23.8551 13.5714 21.8482 13.5714 19.9434C13.5714 16.8882 15.5677 15.2679 17.5323 15.2679C18.5762 15.2679 19.4464 15.95 20.1018 15.95C20.7257 15.95 21.6985 15.2271 22.8862 15.2271C23.3363 15.2271 24.9535 15.2679 26.0179 16.7861ZM22.3224 13.9337C22.8135 13.3538 23.161 12.5491 23.161 11.7444C23.161 11.6329 23.1515 11.5197 23.131 11.4286C22.3318 11.4584 21.3811 11.9582 20.8078 12.6198C20.3577 13.129 19.9376 13.9337 19.9376 14.7493C19.9376 14.8719 19.9581 14.9945 19.9676 15.0338C20.0181 15.0432 20.1003 15.0542 20.1824 15.0542C20.8994 15.0542 21.8012 14.5764 22.3224 13.9337Z" fill="currentColor"/>
    </symbol>
    <symbol id="github-logo">
        <path fill-rule="evenodd" clip-rule="evenodd" d="M9.96942 0C4.46483 0 0 4.58933 0 10.2474C0 14.7739 2.87462 18.6088 6.78899 19.9919C7.27829 20.0547 7.46177 19.7404 7.46177 19.4889C7.46177 19.2375 7.46177 18.6088 7.46177 17.7286C4.70948 18.3573 4.09786 16.3456 4.09786 16.3456C3.66972 15.1511 2.99694 14.8367 2.99694 14.8367C2.07951 14.2081 3.0581 14.2081 3.0581 14.2081C4.0367 14.2709 4.58716 15.2768 4.58716 15.2768C5.50459 16.8485 6.91131 16.4084 7.46177 16.1569C7.52294 15.4654 7.82875 15.0253 8.07339 14.7739C5.87156 14.5224 3.5474 13.6422 3.5474 9.6816C3.5474 8.54998 3.91437 7.66984 4.58716 6.91543C4.52599 6.72682 4.15902 5.65808 4.70948 4.27499C4.70948 4.27499 5.56575 4.02352 7.46177 5.34374C8.25688 5.09227 9.11315 5.0294 9.96942 5.0294C10.8257 5.0294 11.682 5.15514 12.4771 5.34374C14.3731 4.02352 15.2294 4.27499 15.2294 4.27499C15.7798 5.65808 15.4128 6.72682 15.3517 6.97829C15.9633 7.66984 16.3914 8.61285 16.3914 9.74446C16.3914 13.7051 14.0673 14.5224 11.8654 14.7739C12.2324 15.0882 12.5382 15.7169 12.5382 16.6599C12.5382 18.043 12.5382 19.1117 12.5382 19.4889C12.5382 19.7404 12.7217 20.0547 13.211 19.9919C17.1865 18.6088 20 14.7739 20 10.2474C19.9388 4.58933 15.474 0 9.96942 0Z" fill="#A0AABA"/>
    </symbol>
</svg>