<svg xmlns="http://www.w3.org/2000/svg" viewBox="0 0 236.97 40.24"><defs><style>.cls-1{fill:#602428;}.cls-2{fill:#fff;}.cls-3{fill:#b79c72;stroke:#b79c72;stroke-miterlimit:10;stroke-width:0.5px;}.cls-4{fill:#602428;}</style></defs><g id="Layer_2" data-name="Layer 2"><g id="Layer_1-2" data-name="Layer 1"><path class="cls-1" d="M55.48,29.78a9.22,9.22,0,0,1-4.57-1.07,6.92,6.92,0,0,1-2.88-3,10,10,0,0,1-1-4.52,9.68,9.68,0,0,1,1-4.52,7.05,7.05,0,0,1,2.91-3,9,9,0,0,1,4.5-1.07,10.32,10.32,0,0,1,4.4,1L59,18.23a6.83,6.83,0,0,0-3-.67,3.69,3.69,0,0,0-2.61,1,3.46,3.46,0,0,0-1,2.67,3.62,3.62,0,0,0,1,2.7,3.74,3.74,0,0,0,2.73.94l.59,0a3.78,3.78,0,0,0,.56-.08l.45-.09a2.78,2.78,0,0,0,.45-.13l.36-.12.38-.15.33-.13.87,4.56A10.91,10.91,0,0,1,55.48,29.78Z"/><path class="cls-1" d="M73.9,29.36H69.11A4.3,4.3,0,0,1,68.8,28a4.45,4.45,0,0,1-1.59,1.27,4.64,4.64,0,0,1-2,.48,4,4,0,0,1-2.79-1,3.44,3.44,0,0,1-1-2.68A3.34,3.34,0,0,1,63.06,23a12.47,12.47,0,0,1,5.71-1v-.19a1,1,0,0,0-.47-.93,2.81,2.81,0,0,0-1.41-.28,6.71,6.71,0,0,0-3.27.8l-1.56-3a9.39,9.39,0,0,1,5.86-1.57,11.09,11.09,0,0,1,1.71.12,6.48,6.48,0,0,1,1.55.45,3.88,3.88,0,0,1,1.29.88,4,4,0,0,1,.85,1.47,6.45,6.45,0,0,1,.33,2.16v5.87A4,4,0,0,0,73.9,29.36Zm-6.39-3a1.87,1.87,0,0,0,1.26-.55V24A3.63,3.63,0,0,0,67,24.4a1.12,1.12,0,0,0-.5,1,.9.9,0,0,0,.27.68A1,1,0,0,0,67.51,26.33Z"/><path class="cls-1" d="M83.34,15.52a1.55,1.55,0,0,0-.94.22.84.84,0,0,0-.3.72v.74h2.4v3.74H82.1v8.42H77.23V20.94H75.68V17.2h1.55V16a4.14,4.14,0,0,1,1.19-3.22,5.87,5.87,0,0,1,4-1.06,14,14,0,0,1,2.37.15v3.73C84.29,15.54,83.82,15.52,83.34,15.52Z"/><path class="cls-1" d="M98.51,22.51v1.63H90.88a2,2,0,0,0,.4.68,2,2,0,0,0,.54.44,2.4,2.4,0,0,0,.67.25,5.47,5.47,0,0,0,.71.1c.2,0,.44,0,.72,0a9,9,0,0,0,2.94-.46l1.08,3.69a11.63,11.63,0,0,1-4.87.92,8.22,8.22,0,0,1-5.52-1.67,5.87,5.87,0,0,1-1.94-4.7,6.36,6.36,0,0,1,1.88-4.84,6.79,6.79,0,0,1,4.88-1.79,6.42,6.42,0,0,1,4.47,1.52A5.39,5.39,0,0,1,98.51,22.51Zm-6.25-2.19a1.24,1.24,0,0,0-1,.44A2.37,2.37,0,0,0,90.76,22h2.9a2.4,2.4,0,0,0-.46-1.27A1.2,1.2,0,0,0,92.26,20.32Z"/><path class="cls-1" d="M116.57,29.36h-4.78a4.32,4.32,0,0,1-.32-1.33,4.29,4.29,0,0,1-1.59,1.27,4.57,4.57,0,0,1-2,.48,4,4,0,0,1-2.79-1A3.44,3.44,0,0,1,104,26.14,3.34,3.34,0,0,1,105.73,23a12.52,12.52,0,0,1,5.72-1v-.19a1,1,0,0,0-.48-.93,2.81,2.81,0,0,0-1.41-.28,6.7,6.7,0,0,0-3.26.8l-1.57-3a9.42,9.42,0,0,1,5.87-1.57,11.09,11.09,0,0,1,1.71.12,6.41,6.41,0,0,1,1.54.45,3.93,3.93,0,0,1,1.3.88A4.16,4.16,0,0,1,116,19.7a6.46,6.46,0,0,1,.32,2.16v5.87A4.17,4.17,0,0,0,116.57,29.36Zm-6.39-3a1.88,1.88,0,0,0,1.27-.55V24a3.68,3.68,0,0,0-1.76.42,1.14,1.14,0,0,0-.5,1,.9.9,0,0,0,.27.68A1,1,0,0,0,110.18,26.33Z"/><path class="cls-1" d="M127.42,29.51a10.72,10.72,0,0,1-2.55.27,10.58,10.58,0,0,1-2.54-.27,5.33,5.33,0,0,1-1.92-.86A3.77,3.77,0,0,1,119.15,27a6.69,6.69,0,0,1-.42-2.51V17.2h4.87v7.33a1.5,1.5,0,0,0,.3,1,1.16,1.16,0,0,0,1,.37,1.22,1.22,0,0,0,1-.38,1.39,1.39,0,0,0,.32-1V17.2h4.88v7.29a6.68,6.68,0,0,1-.43,2.51,3.73,3.73,0,0,1-1.28,1.65A5.38,5.38,0,0,1,127.42,29.51Z"/><path class="cls-1" d="M143.19,13V25h4.41v4.32h-9.47V13Z"/><path class="cls-1" d="M161.78,29.36H157a4.3,4.3,0,0,1-.31-1.33,4.45,4.45,0,0,1-1.59,1.27,4.64,4.64,0,0,1-2,.48,4,4,0,0,1-2.79-1,3.44,3.44,0,0,1-1-2.68A3.34,3.34,0,0,1,151,23a12.47,12.47,0,0,1,5.71-1v-.19a1,1,0,0,0-.47-.93,2.81,2.81,0,0,0-1.41-.28,6.71,6.71,0,0,0-3.27.8l-1.56-3a9.37,9.37,0,0,1,5.86-1.57,11.09,11.09,0,0,1,1.71.12,6.48,6.48,0,0,1,1.55.45,3.88,3.88,0,0,1,1.29.88,4.16,4.16,0,0,1,.85,1.47,6.45,6.45,0,0,1,.33,2.16v5.87A4.2,4.2,0,0,0,161.78,29.36Zm-6.39-3a1.88,1.88,0,0,0,1.27-.55V24a3.63,3.63,0,0,0-1.75.42,1.12,1.12,0,0,0-.5,1,.9.9,0,0,0,.27.68A1,1,0,0,0,155.39,26.33Z"/><path class="cls-1" d="M173.07,25.48l.07,3.95a12.06,12.06,0,0,1-1.51.22,16.71,16.71,0,0,1-2,.13,8.9,8.9,0,0,1-1.63-.13,5.4,5.4,0,0,1-1.21-.32,2.72,2.72,0,0,1-.85-.53,3.17,3.17,0,0,1-.55-.71,3.11,3.11,0,0,1-.32-.88,8,8,0,0,1-.14-1c0-.32,0-.7,0-1.15V20.94h-1.69V17.2h1.69V14.66l4.88-.82V17.2h3v3.74h-3v3.27a1.56,1.56,0,0,0,.3,1.1,1.5,1.5,0,0,0,1.08.3A11.7,11.7,0,0,0,173.07,25.48Z"/><path class="cls-1" d="M178.18,16a3.17,3.17,0,0,1-2.06-.65,2.09,2.09,0,0,1-.79-1.72,2.17,2.17,0,0,1,.79-1.76,3.56,3.56,0,0,1,4.13,0,2.19,2.19,0,0,1,.78,1.76,2.11,2.11,0,0,1-.78,1.72A3.15,3.15,0,0,1,178.18,16Zm-2.44,13.36V17.2h4.88V29.36Z"/><path class="cls-1" d="M192.55,25.48l.06,3.95a12.12,12.12,0,0,1-1.5.22,16.71,16.71,0,0,1-2,.13,8.94,8.94,0,0,1-1.64-.13,5.46,5.46,0,0,1-1.2-.32,2.61,2.61,0,0,1-.85-.53,3.23,3.23,0,0,1-.56-.71,3.12,3.12,0,0,1-.31-.88,6.56,6.56,0,0,1-.15-1c0-.32,0-.7,0-1.15V20.94h-1.7V17.2h1.7V14.66l4.87-.82V17.2h3v3.74h-3v3.27a1.56,1.56,0,0,0,.3,1.1,1.52,1.52,0,0,0,1.08.3A11.83,11.83,0,0,0,192.55,25.48Z"/><path class="cls-1" d="M203.26,29.51a10.72,10.72,0,0,1-2.55.27,10.58,10.58,0,0,1-2.54-.27,5.33,5.33,0,0,1-1.92-.86A3.77,3.77,0,0,1,195,27a6.69,6.69,0,0,1-.42-2.51V17.2h4.87v7.33a1.5,1.5,0,0,0,.3,1,1.16,1.16,0,0,0,1,.37,1.22,1.22,0,0,0,1-.38,1.39,1.39,0,0,0,.32-1V17.2h4.88v7.29a6.68,6.68,0,0,1-.43,2.51,3.73,3.73,0,0,1-1.28,1.65A5.38,5.38,0,0,1,203.26,29.51Z"/><path class="cls-1" d="M217.26,18.09v-6h4.93V29.36h-4.51L217.59,28A4.14,4.14,0,0,1,214,29.76a5.15,5.15,0,0,1-2.12-.43,5,5,0,0,1-1.73-1.22A5.64,5.64,0,0,1,209,26.06a8.89,8.89,0,0,1-.42-2.82,6.92,6.92,0,0,1,1.51-4.79A5,5,0,0,1,214,16.76,4.21,4.21,0,0,1,217.26,18.09Zm-3,6.9a1.64,1.64,0,0,0,1.39.64,1.77,1.77,0,0,0,1.45-.69,2.65,2.65,0,0,0,.55-1.7,2.57,2.57,0,0,0-.55-1.72,1.79,1.79,0,0,0-1.45-.65,1.67,1.67,0,0,0-1.4.63,2.81,2.81,0,0,0-.49,1.74A2.8,2.8,0,0,0,214.29,25Z"/><path class="cls-1" d="M237,22.51v1.63h-7.63a2,2,0,0,0,.4.68,2,2,0,0,0,.54.44,2.4,2.4,0,0,0,.67.25,5.47,5.47,0,0,0,.71.1c.2,0,.44,0,.72,0a9,9,0,0,0,2.94-.46l1.08,3.69a11.59,11.59,0,0,1-4.87.92A8.22,8.22,0,0,1,226,28.11a5.9,5.9,0,0,1-1.94-4.7A6.36,6.36,0,0,1,226,18.57a6.79,6.79,0,0,1,4.88-1.79,6.42,6.42,0,0,1,4.47,1.52A5.35,5.35,0,0,1,237,22.51Zm-6.25-2.19a1.24,1.24,0,0,0-1,.44,2.37,2.37,0,0,0-.54,1.25h2.9a2.4,2.4,0,0,0-.46-1.27A1.2,1.2,0,0,0,230.72,20.32Z"/><circle class="cls-1" cx="20.12" cy="20.12" r="20.12"/><g id="Cup"><path class="cls-2" d="M27.81,21.45c-.06.63-.12,1.26-.17,1.89l-.18,1.94c0,.38-.08.75-.13,1.12a.37.37,0,0,1-.12.23c-.26.14-.27.39-.29.63-.07.77-.13,1.55-.21,2.32s-.15,1.59-.23,2.38c-.05.5-.11,1-.15,1.48A.62.62,0,0,1,26,34a7.15,7.15,0,0,1-1.17.43,14.6,14.6,0,0,1-1.85.32c-.65.07-1.3.09-1.95.11a19.9,19.9,0,0,1-3.27-.15,8.61,8.61,0,0,1-2.34-.57,2,2,0,0,1-.48-.35.54.54,0,0,1-.12-.31c0-.44-.09-.87-.14-1.31l-.18-1.81c0-.44-.09-.87-.13-1.31-.06-.63-.11-1.27-.18-1.91a3.63,3.63,0,0,0-.15-.54v-.08a2.17,2.17,0,0,0,.33.19,7.1,7.1,0,0,0,2,.39c1.26.1,2.51.18,3.77.22.9,0,1.81,0,2.71-.06s1.87-.14,2.8-.24A4.24,4.24,0,0,0,27,26.67a.37.37,0,0,0,.24-.34c.05-.6.12-1.2.18-1.79s.13-1.44.21-2.16c0-.42.09-.84.14-1.25Z"/><path class="cls-2" d="M27.81,21.45v-.32c0-.31.05-.61.08-.91.11-1.16.22-2.33.34-3.49,0-.3,0-.34-.31-.33-.73,0-1.47.07-2.21.07-3.16,0-6.33,0-9.5,0h-.76l-2.26-.06c-.14,0-.2.05-.19.2.09.78.17,1.57.25,2.35.09.93.19,1.86.28,2.8s.17,1.78.26,2.68l.21,2.1v.08a1.58,1.58,0,0,1-.11-.37c-.06-.47-.09-.95-.14-1.42l-.18-1.95c0-.4-.09-.81-.13-1.21l-.18-2c0-.38-.09-.77-.13-1.15l-.18-1.91c0-.08,0-.15,0-.23.19-.06.16-.21.14-.35,0-.43-.09-.86-.14-1.29-.06-.64-.11-1.27-.18-1.91,0-.39-.09-.78-.13-1.17s0-.29.27-.29c.41,0,.82,0,1.24,0H25.78c.63,0,1.25,0,1.88,0h.64c.14,0,.21.08.19.23,0,.41-.1.82-.14,1.23-.07.72-.15,1.45-.22,2.17,0,.38-.06.76-.08,1.14a.2.2,0,0,0,.11.19c.14,0,.15.12.14.25s0,.54-.07.81c-.07.77-.15,1.54-.23,2.32C27.94,20.3,27.87,20.87,27.81,21.45Z"/><path class="cls-2" d="M13.87,7.2l.45-.12,1,0c3.77-.12,7.54-.14,11.3,0,.71,0,.78.08,1,.75a.83.83,0,0,1,0,.15c.13.59.26,1.18.38,1.78,0,.12.08.18.21.18l.5,0c.22,0,.26.07.19.27s-.12.36.11.48a.23.23,0,0,1,.08.11c.09.21.05.27-.17.28-.49,0-1,0-1.46,0l-9.66,0h-1.8l-3.8-.07c-.24,0-.27-.07-.17-.28a.21.21,0,0,1,.07-.11c.19-.11.19-.25.11-.44s0-.3.22-.31L13,10a.19.19,0,0,0,.21-.19c0-.16.05-.33.08-.49A6.54,6.54,0,0,1,13.87,7.2Z"/><path class="cls-3" d="M13.74,26.5l-.21-2.18c-.1-.93-.18-1.85-.28-2.78s-.19-1.93-.29-2.9c-.08-.81-.16-1.62-.25-2.43,0-.15,0-.21.19-.21l2.35.07H25.89c.76,0,1.52,0,2.28-.07.32,0,.35,0,.32.34-.12,1.21-.23,2.41-.35,3.62,0,.31-.05.63-.08.94s-.11.86-.15,1.29c-.08.75-.15,1.5-.22,2.24s-.13,1.24-.18,1.86a.42.42,0,0,1-.25.36,4.53,4.53,0,0,1-1.49.37c-1,.1-1.93.19-2.9.24s-1.88.1-2.81.07c-1.31,0-2.61-.13-3.91-.23a7.37,7.37,0,0,1-2.07-.4A2.33,2.33,0,0,1,13.74,26.5Z"/><g id="Marker"><path class="cls-4" d="M16.89,25.92s4.42.78,6.89-1.67a3.52,3.52,0,0,0-.11-5,3.65,3.65,0,0,0-5.1-.11C16.09,21.56,16.89,25.92,16.89,25.92Z"/><path class="cls-2" d="M20.86,19.85l-.71,1.44-1.46.7,1.46.7.71,1.44.71-1.44L23,22l-1.46-.7Z"/></g></g></g></g></svg>
