<svg width="22" height="22" viewBox="0 0 22 22" fill="none" xmlns="http://www.w3.org/2000/svg">
<g clip-path="url(#clip0_22_351)">
<g clip-path="url(#clip1_22_351)">
<path d="M21.3399 10.9999C21.3399 16.7109 16.7109 21.3399 10.9999 21.3399C5.28897 21.3399 0.659912 16.7109 0.659912 10.9999C0.659912 5.28897 5.28897 0.659912 10.9999 0.659912C16.7109 0.659912 21.3399 5.28897 21.3399 10.9999Z" fill="#0F38BF" stroke="white" stroke-width="1.32" stroke-linejoin="round"/>
</g>
<path d="M11 5.28003C9.24001 5.28003 4.84001 5.50003 5.28001 5.94003L10.56 11.44V14.96C10.56 15.84 7.92001 15.4 7.92001 16.72H14.08C14.08 15.4 11.44 15.84 11.44 14.96V11.44L16.72 5.94003C17.16 5.50003 12.76 5.28003 11 5.28003ZM11 6.16003C13.2 6.16003 15.18 6.38003 15.18 6.38003L14.52 7.04003H7.48001L6.82001 6.38003C6.82001 6.38003 8.80001 6.16003 11 6.16003Z" fill="white"/>
</g>
<defs>
<clipPath id="clip0_22_351">
<rect width="22" height="22" fill="white"/>
</clipPath>
<clipPath id="clip1_22_351">
<rect width="22" height="22" fill="white"/>
</clipPath>
</defs>
</svg>
