<svg width="22" height="22" viewBox="0 0 22 22" fill="none" xmlns="http://www.w3.org/2000/svg">
<g clip-path="url(#clip0_22_356)">
<g clip-path="url(#clip1_22_356)">
<path d="M21.3399 10.9999C21.3399 16.7109 16.7109 21.3399 10.9999 21.3399C5.28897 21.3399 0.659912 16.7109 0.659912 10.9999C0.659912 5.28897 5.28897 0.659912 10.9999 0.659912C16.7109 0.659912 21.3399 5.28897 21.3399 10.9999Z" fill="#0F38BF" stroke="white" stroke-width="1.32" stroke-linejoin="round"/>
</g>
<path d="M14.9746 15.4H17.16L14.96 17.6V15.4145C14.6955 15.6821 14.3359 15.8341 13.9597 15.8375C13.6426 15.8376 13.3346 15.7307 13.0858 15.534C12.431 14.9731 11.9055 14.277 11.5454 13.4935C11.1854 12.7101 10.9993 11.858 10.9999 10.9958C11.0006 10.1336 11.1881 9.28175 11.5494 8.49889C11.9107 7.71603 12.4373 7.02073 13.0929 6.46081C13.3645 6.25009 13.7031 6.14473 14.0463 6.16417C14.3894 6.18361 14.714 6.32655 14.96 6.56658V4.40002L17.16 6.60002H14.9917C15.0297 6.6358 15.0657 6.67367 15.0995 6.71346C15.2147 6.86172 15.2995 7.03123 15.3491 7.21229C15.3988 7.39336 15.4122 7.58243 15.3888 7.7687C15.3653 7.95497 15.3054 8.13479 15.2124 8.29789C15.1194 8.46099 14.9952 8.60417 14.8468 8.71924C14.5341 9.01002 14.285 9.3624 14.1152 9.75419C13.9453 10.146 13.8585 10.5687 13.86 10.9957C13.86 11.4283 13.9496 11.8563 14.1233 12.2525C14.2969 12.6488 14.5508 13.0048 14.8689 13.298C15.1588 13.5388 15.3426 13.8837 15.3808 14.2586C15.4191 14.6335 15.3087 15.0085 15.0735 15.3029C15.0435 15.3397 15.0071 15.3669 14.9746 15.4ZM6.60354 4.40002L5.72354 9.24002C5.5947 9.94842 7.29126 10.2793 7.26354 11L7.04354 16.72C7.03889 16.8368 7.05847 16.9533 7.10105 17.0622C7.14363 17.1711 7.20829 17.27 7.29095 17.3526C7.37361 17.4353 7.47249 17.4999 7.58136 17.5425C7.69022 17.5851 7.80673 17.6047 7.92354 17.6C8.04034 17.6047 8.15685 17.5851 8.26572 17.5425C8.37459 17.4999 8.47347 17.4353 8.55613 17.3526C8.63879 17.27 8.70344 17.1711 8.74602 17.0622C8.7886 16.9533 8.80818 16.8368 8.80354 16.72L8.58354 11C8.55591 10.2805 10.1089 9.96092 10.1235 9.24002L9.24354 4.40002H8.80354L9.02354 7.92002L8.36354 8.36002L8.14354 4.40002H7.70354L7.48354 8.36002L6.82354 7.92002L7.04354 4.40002H6.60354Z" fill="white"/>
</g>
<defs>
<clipPath id="clip0_22_356">
<rect width="22" height="22" fill="white"/>
</clipPath>
<clipPath id="clip1_22_356">
<rect width="22" height="22" fill="white"/>
</clipPath>
</defs>
</svg>
