<svg width="23" height="22" viewBox="0 0 23 22" fill="none" xmlns="http://www.w3.org/2000/svg">
<g clip-path="url(#clip0_22_352)">
<g clip-path="url(#clip1_22_352)">
<path d="M22.14 10.9999C22.14 16.7109 17.5109 21.3399 11.8 21.3399C6.08902 21.3399 1.45996 16.7109 1.45996 10.9999C1.45996 5.28897 6.08902 0.659912 11.8 0.659912C17.5109 0.659912 22.14 5.28897 22.14 10.9999Z" fill="#0F38BF" stroke="white" stroke-width="1.32" stroke-linejoin="round"/>
</g>
<path d="M15.76 8.80003V6.16003C15.76 6.16003 14.88 5.28003 11.8 5.28003C8.71997 5.28003 7.83997 6.16003 7.83997 6.16003V8.80003C7.86531 10.0245 8.16609 11.2276 8.71997 12.32C9.27041 13.5827 9.27041 15.0174 8.71997 16.28C8.71997 16.28 8.71997 17.16 11.8 17.16C14.88 17.16 14.88 16.28 14.88 16.28C14.3295 15.0174 14.3295 13.5827 14.88 12.32C15.4338 11.2276 15.7346 10.0245 15.76 8.80003ZM11.8 16.28C11.099 16.3108 10.3975 16.2276 9.72317 16.0336C9.90181 15.3979 9.99069 14.7404 9.98717 14.08H13.6128C13.6092 14.7404 13.6981 15.3979 13.8768 16.0336C13.2024 16.2276 12.501 16.3108 11.8 16.28ZM11.8 8.80003C10.7559 8.82634 9.71489 8.67762 8.71997 8.36003V6.60003C9.71525 6.2842 10.756 6.13557 11.8 6.16003C12.8439 6.13557 13.8847 6.2842 14.88 6.60003V8.36003C13.885 8.67762 12.844 8.82634 11.8 8.80003Z" fill="white"/>
</g>
<defs>
<clipPath id="clip0_22_352">
<rect width="22" height="22" fill="white" transform="translate(0.799927)"/>
</clipPath>
<clipPath id="clip1_22_352">
<rect width="22" height="22" fill="white" transform="translate(0.799927)"/>
</clipPath>
</defs>
</svg>
