<svg width="23" height="22" viewBox="0 0 23 22" fill="none" xmlns="http://www.w3.org/2000/svg">
<g clip-path="url(#clip0_22_354)">
<g clip-path="url(#clip1_22_354)">
<path d="M21.7401 10.9999C21.7401 16.7109 17.111 21.3399 11.4001 21.3399C5.68911 21.3399 1.06006 16.7109 1.06006 10.9999C1.06006 5.28897 5.68911 0.659912 11.4001 0.659912C17.111 0.659912 21.7401 5.28897 21.7401 10.9999Z" fill="#0F38BF" stroke="white" stroke-width="1.32" stroke-linejoin="round"/>
</g>
<path d="M17.1201 11.44C17.1201 11.9261 16.7261 12.32 16.2401 12.32H6.56005C6.07403 12.32 5.68005 11.9261 5.68005 11.44C5.68005 10.954 6.07403 10.56 6.56005 10.56H16.2401C16.7261 10.56 17.1201 10.954 17.1201 11.44ZM7.88005 13.2H6.56005C6.56005 14.6581 7.74198 15.84 9.20005 15.84H13.6001C15.0581 15.84 16.2401 14.6581 16.2401 13.2H7.88005ZM7.44005 9.68003H6.56005V7.92003C6.56005 6.94799 7.34801 6.16003 8.32005 6.16003H14.4801C15.4521 6.16003 16.2401 6.94799 16.2401 7.92003V9.68003H7.44005ZM14.4801 8.36003C14.4801 8.603 14.6771 8.80003 14.9201 8.80003C15.163 8.80003 15.3601 8.603 15.3601 8.36003C15.3601 8.11707 15.163 7.92003 14.9201 7.92003C14.6771 7.92003 14.4801 8.11707 14.4801 8.36003ZM12.7201 7.48003C12.7201 7.723 12.9171 7.92003 13.1601 7.92003C13.403 7.92003 13.6001 7.723 13.6001 7.48003C13.6001 7.23707 13.403 7.04003 13.1601 7.04003C12.9171 7.04003 12.7201 7.23707 12.7201 7.48003ZM10.9601 8.36003C10.9601 8.603 11.1571 8.80003 11.4001 8.80003C11.643 8.80003 11.8401 8.603 11.8401 8.36003C11.8401 8.11707 11.643 7.92003 11.4001 7.92003C11.1571 7.92003 10.9601 8.11707 10.9601 8.36003ZM9.20005 7.48003C9.20005 7.723 9.39709 7.92003 9.64005 7.92003C9.88302 7.92003 10.0801 7.723 10.0801 7.48003C10.0801 7.23707 9.88302 7.04003 9.64005 7.04003C9.39709 7.04003 9.20005 7.23707 9.20005 7.48003ZM7.44005 8.36003C7.44005 8.603 7.63709 8.80003 7.88005 8.80003C8.12302 8.80003 8.32005 8.603 8.32005 8.36003C8.32005 8.11707 8.12302 7.92003 7.88005 7.92003C7.63709 7.92003 7.44005 8.11707 7.44005 8.36003Z" fill="white"/>
</g>
<defs>
<clipPath id="clip0_22_354">
<rect width="22" height="22" fill="white" transform="translate(0.400024)"/>
</clipPath>
<clipPath id="clip1_22_354">
<rect width="22" height="22" fill="white" transform="translate(0.400024)"/>
</clipPath>
</defs>
</svg>
