<svg width="22" height="22" viewBox="0 0 22 22" fill="none" xmlns="http://www.w3.org/2000/svg">
<g clip-path="url(#clip0_157_1590)">
<g clip-path="url(#clip1_157_1590)">
<path d="M21.3402 10.9999C21.3402 16.7109 16.7111 21.3399 11.0002 21.3399C5.28921 21.3399 0.660156 16.7109 0.660156 10.9999C0.660156 5.28897 5.28921 0.659912 11.0002 0.659912C16.7111 0.659912 21.3402 5.28897 21.3402 10.9999Z" fill="#0F38BF" stroke="white" stroke-width="1.32" stroke-linejoin="round"/>
</g>
<path d="M5.4 7C5.16 7 5 7.16 5 7.4V13.4V15C5 15.24 5.16 15.4 5.4 15.4C5.64 15.4 5.8 15.24 5.8 15V13.8H16.2V15C16.2 15.24 16.36 15.4 16.6 15.4C16.84 15.4 17 15.24 17 15V13.4C17 13.16 16.84 13 16.6 13H5.8V7.4C5.8 7.16 5.64 7 5.4 7ZM7.8 7.4C7.16 7.4 6.6 7.96 6.6 8.6C6.6 9.24 7.16 9.8 7.8 9.8C8.44 9.8 9 9.24 9 8.6C9 7.96 8.44 7.4 7.8 7.4ZM10.6 8.2C9.4 8.2 9.4 9.4 9.4 9.4V10.6H7C6.76 10.6 6.6 10.76 6.6 11V11.8C6.6 12.04 6.76 12.2 7 12.2H9.8H17V10.2C17 8.2 15 8.2 15 8.2H10.6Z" fill="white"/>
</g>
<defs>
<clipPath id="clip0_157_1590">
<rect width="22" height="22" fill="white"/>
</clipPath>
<clipPath id="clip1_157_1590">
<rect width="22" height="22" fill="white"/>
</clipPath>
</defs>
</svg>
