<svg width="23" height="22" viewBox="0 0 23 22" fill="none" xmlns="http://www.w3.org/2000/svg">
<g clip-path="url(#clip0_22_355)">
<g clip-path="url(#clip1_22_355)">
<path d="M21.5399 10.9999C21.5399 16.7109 16.9108 21.3399 11.1999 21.3399C5.48892 21.3399 0.859863 16.7109 0.859863 10.9999C0.859863 5.28897 5.48892 0.659912 11.1999 0.659912C16.9108 0.659912 21.5399 5.28897 21.5399 10.9999Z" fill="#0F38BF" stroke="white" stroke-width="1.32" stroke-linejoin="round"/>
</g>
<path d="M9.38708 11.5897C10.0169 11.5906 10.6315 11.397 11.1471 11.0353C11.5553 11.3196 12.0264 11.5007 12.5199 11.5633H12.9071L11.6399 16.4561C11.6061 16.5355 11.5497 16.6031 11.4777 16.6507C11.4057 16.6983 11.3213 16.7237 11.2351 16.7237C11.1488 16.7237 11.0644 16.6983 10.9925 16.6507C10.9205 16.6031 10.8641 16.5355 10.8303 16.4561L9.38708 11.5897ZM14.6671 8.53346C14.6671 9.00024 14.4816 9.4479 14.1516 9.77796C13.8215 10.108 13.3739 10.2935 12.9071 10.2935C12.4403 10.2935 11.9926 10.108 11.6626 9.77796C11.3325 9.4479 11.1471 9.00024 11.1471 8.53346C11.1471 8.88155 11.0439 9.22183 10.8505 9.51126C10.6571 9.80069 10.3822 10.0263 10.0606 10.1595C9.739 10.2927 9.38512 10.3275 9.04372 10.2596C8.70231 10.1917 8.38871 10.0241 8.14257 9.77796C7.89643 9.53182 7.7288 9.21822 7.66089 8.87681C7.59298 8.53541 7.62784 8.18153 7.76105 7.85993C7.89426 7.53833 8.11984 7.26346 8.40927 7.07007C8.6987 6.87668 9.03898 6.77346 9.38708 6.77346H9.49268C9.39389 6.50731 9.36095 6.22122 9.39666 5.93959C9.43237 5.65797 9.53568 5.38915 9.69777 5.15609C9.85986 4.92303 10.0759 4.73264 10.3275 4.60116C10.5791 4.46967 10.8588 4.401 11.1427 4.401C11.4266 4.401 11.7062 4.46967 11.9578 4.60116C12.2094 4.73264 12.4255 4.92303 12.5876 5.15609C12.7497 5.38915 12.853 5.65797 12.8887 5.93959C12.9244 6.22122 12.8915 6.50731 12.7927 6.77346H12.9071C13.1384 6.77357 13.3673 6.81927 13.5809 6.90793C13.7945 6.9966 13.9886 7.12649 14.1519 7.29019C14.3153 7.45389 14.4448 7.64818 14.5331 7.86196C14.6213 8.07575 14.6665 8.30482 14.6662 8.53609L14.6671 8.53346Z" fill="white"/>
</g>
<defs>
<clipPath id="clip0_22_355">
<rect width="22" height="22" fill="white" transform="translate(0.199951)"/>
</clipPath>
<clipPath id="clip1_22_355">
<rect width="22" height="22" fill="white" transform="translate(0.199951)"/>
</clipPath>
</defs>
</svg>
