<svg width="15" height="20" viewBox="0 0 15 20" fill="none" xmlns="http://www.w3.org/2000/svg">
<g clip-path="url(#clip0_11_337)">
<path d="M7.5 12C8.19223 12 8.86892 12.2053 9.4445 12.5898C10.0201 12.9744 10.4687 13.5211 10.7336 14.1606C10.9985 14.8002 11.0678 15.5039 10.9327 16.1829C10.7977 16.8617 10.4644 17.4854 9.97487 17.9749C9.48539 18.4644 8.86175 18.7978 8.18282 18.9327C7.50389 19.0678 6.80016 18.9985 6.1606 18.7336C5.52106 18.4688 4.97444 18.0201 4.58986 17.4445C4.20528 16.8689 4 16.1922 4 15.5C4 14.5717 4.36874 13.6814 5.02513 13.0252C5.6815 12.3687 6.57175 12 7.5 12Z" stroke="white" stroke-width="2" stroke-linejoin="round"/>
<path d="M7.5 12C8.19223 12 8.86892 12.2053 9.4445 12.5898C10.0201 12.9744 10.4687 13.5211 10.7336 14.1606C10.9985 14.8002 11.0678 15.5039 10.9327 16.1829C10.7977 16.8617 10.4644 17.4854 9.97487 17.9749C9.48539 18.4644 8.86175 18.7978 8.18282 18.9327C7.50389 19.0678 6.80016 18.9985 6.1606 18.7336C5.52106 18.4688 4.97444 18.0201 4.58986 17.4445C4.20528 16.8689 4 16.1922 4 15.5C4 14.5717 4.36874 13.6814 5.02513 13.0252C5.6815 12.3687 6.57175 12 7.5 12Z" fill="#0F38BF"/>
</g>
<defs>
<clipPath id="clip0_11_337">
<rect width="15" height="20" fill="white"/>
</clipPath>
</defs>
</svg>
