<svg width="23" height="22" viewBox="0 0 23 22" fill="none" xmlns="http://www.w3.org/2000/svg">
<g clip-path="url(#clip0_22_358)">
<g clip-path="url(#clip1_22_358)">
<path d="M21.94 10.9999C21.94 16.7109 17.311 21.3399 11.6 21.3399C5.88906 21.3399 1.26001 16.7109 1.26001 10.9999C1.26001 5.28897 5.88906 0.659912 11.6 0.659912C17.311 0.659912 21.94 5.28897 21.94 10.9999Z" fill="#0F38BF" stroke="white" stroke-width="1.32" stroke-linejoin="round"/>
</g>
<path d="M8.92205 14.9506L5.87989 11.4401V10.5601H17.3199V11.4401L14.2433 14.9505L8.92205 14.9506ZM8.50951 6.60011C8.50951 6.48341 8.46315 6.3715 8.38063 6.28898C8.29812 6.20647 8.1862 6.16011 8.06951 6.16011C7.95281 6.16011 7.8409 6.20647 7.75838 6.28898C7.67586 6.3715 7.62951 6.48341 7.62951 6.60011V7.09916L6.04823 7.42256C5.99093 7.43353 5.94032 7.46681 5.90755 7.51509C5.87479 7.56337 5.86254 7.62269 5.87351 7.68C5.88448 7.73731 5.91777 7.78792 5.96605 7.82068C6.01433 7.85345 6.07365 7.86569 6.13095 7.85473L7.62951 7.61044V8.10869L6.08951 8.14011C6.03116 8.14011 5.9752 8.16329 5.93394 8.20455C5.89269 8.2458 5.86951 8.30176 5.86951 8.36011C5.86951 8.41846 5.89269 8.47442 5.93394 8.51567C5.9752 8.55693 6.03116 8.58011 6.08951 8.58011L7.62951 8.61153V9.67835H8.50951V6.60011ZM16.8695 7.92011L10.2695 8.15111V7.0358L16.9522 6.09094C17.0668 6.06899 17.168 6.00241 17.2336 5.90584C17.2991 5.80927 17.3236 5.69063 17.3016 5.57601C17.2797 5.46139 17.2131 5.36019 17.1165 5.29466C17.02 5.22914 16.9013 5.20466 16.7867 5.22661L10.2616 6.56095C10.2526 6.44811 10.2001 6.34318 10.1152 6.26827C10.0304 6.19336 9.91972 6.15433 9.80664 6.15941C9.69355 6.16449 9.58685 6.21328 9.50904 6.29549C9.43122 6.3777 9.38837 6.48692 9.38951 6.60011V6.8004L8.95567 6.88919V7.19851L9.38951 7.12811V8.18182L8.95567 8.19062V8.59613L16.8695 8.80011C16.9862 8.80011 17.0981 8.75375 17.1806 8.67124C17.2631 8.58872 17.3095 8.4768 17.3095 8.36011C17.3095 8.24341 17.2631 8.1315 17.1806 8.04898C17.0981 7.96647 16.9862 7.92011 16.8695 7.92011V7.92011ZM13.7999 15.8401H9.39989V16.3467H13.7999V15.8401Z" fill="white"/>
</g>
<defs>
<clipPath id="clip0_22_358">
<rect width="22" height="22" fill="white" transform="translate(0.599976)"/>
</clipPath>
<clipPath id="clip1_22_358">
<rect width="22" height="22" fill="white" transform="translate(0.599976)"/>
</clipPath>
</defs>
</svg>
