<svg width="36" height="36" viewBox="0 0 36 36" fill="none" xmlns="http://www.w3.org/2000/svg">
<path d="M12.5492 4.96676C12.1675 4.27794 11.4164 3.87183 10.6449 4.03643C9.52113 4.27617 7.89377 4.78517 6.76915 5.83268C4.89239 7.58076 2.46297 14.7502 11.5635 24.498C20.6641 34.2459 27.9938 32.3253 29.8706 30.5772C30.9963 29.5286 31.6183 27.9404 31.9359 26.8373C32.1533 26.0818 31.8004 25.307 31.1396 24.879L26.8961 22.1302C25.9304 21.5046 24.6366 21.8113 24.0562 22.8034L22.6763 25.1619C22.5207 25.4279 22.2207 25.57 21.924 25.4848C20.8732 25.183 18.2714 24.1663 15.317 21.0019C12.3615 17.8362 11.5282 15.1719 11.3005 14.1046C11.2363 13.8038 11.399 13.5154 11.6753 13.379L14.1303 12.1671C15.1607 11.6584 15.5569 10.3946 15.0007 9.39086L12.5492 4.96676Z" fill="#23262D"/>
</svg>