<svg width="40" height="40" viewBox="0 0 40 40" fill="none" xmlns="http://www.w3.org/2000/svg">
<path d="M27.0369 28.2299C30.2259 24.6024 33.3333 21.0677 33.3333 15.5556C33.3333 8.19177 27.3638 2.22223 20 2.22223C12.6362 2.22223 6.66667 8.19177 6.66667 15.5556C6.66667 21.0677 9.77409 24.6024 12.9631 28.2299C15.2485 30.8296 17.5758 33.4769 18.8314 36.9338C19.0115 37.4297 19.4724 37.7778 20 37.7778C20.5276 37.7778 20.9885 37.4297 21.1686 36.9338C22.4242 33.4769 24.7515 30.8296 27.0369 28.2299ZM24.8889 15.5556C24.8889 18.2556 22.7001 20.4445 20 20.4445C17.2999 20.4445 15.1111 18.2556 15.1111 15.5556C15.1111 12.8555 17.2999 10.6667 20 10.6667C22.7001 10.6667 24.8889 12.8555 24.8889 15.5556Z" fill="#23262D"/>
</svg>