<svg width="23" height="22" viewBox="0 0 23 22" fill="none" xmlns="http://www.w3.org/2000/svg">
<g clip-path="url(#clip0_22_359)">
<g clip-path="url(#clip1_22_359)">
<path d="M21.7401 10.9999C21.7401 16.7109 17.111 21.3399 11.4001 21.3399C5.68911 21.3399 1.06006 16.7109 1.06006 10.9999C1.06006 5.28897 5.68911 0.659912 11.4001 0.659912C17.111 0.659912 21.7401 5.28897 21.7401 10.9999Z" fill="#0F38BF" stroke="white" stroke-width="1.32" stroke-linejoin="round"/>
</g>
<path d="M6.02559 11.3797L4.82166 10.837C6.15894 7.88044 8.60508 5.56826 11.6322 4.39941L11.6559 4.46101L12.106 5.63194L12.1028 5.63309C9.40532 6.68289 7.22467 8.74491 6.02576 11.3795L6.02559 11.3797ZM15.6731 15.7445L6.9297 11.8034C8.0326 9.37903 10.0391 7.48154 12.5212 6.51564L12.5241 6.51449L13.2425 8.38203C13.2177 8.38009 13.1966 8.36777 13.1714 8.36777C13.0164 8.3669 12.8637 8.40457 12.7269 8.47737C12.5902 8.55018 12.4737 8.65585 12.3879 8.78487C12.3021 8.91388 12.2497 9.06222 12.2355 9.2165C12.2213 9.37078 12.2456 9.52618 12.3064 9.66871C12.3671 9.81125 12.4623 9.93644 12.5835 10.033C12.7046 10.1296 12.8479 10.1946 13.0004 10.2221C13.1528 10.2495 13.3098 10.2387 13.457 10.1905C13.6042 10.1422 13.7372 10.0581 13.8438 9.94579L15.9673 15.466C15.9828 15.5064 15.986 15.5506 15.9764 15.5929C15.9668 15.6353 15.9449 15.6737 15.9133 15.7036C15.8818 15.7333 15.8421 15.7531 15.7994 15.7603C15.7566 15.7675 15.7127 15.7618 15.6731 15.744V15.7445ZM11.3347 11.0165C11.3347 10.8556 11.287 10.6983 11.1976 10.5645C11.1083 10.4307 10.9812 10.3264 10.8326 10.2648C10.6839 10.2032 10.5203 10.1871 10.3625 10.2185C10.2047 10.2498 10.0597 10.3273 9.94591 10.4411C9.83212 10.5549 9.75463 10.6998 9.72323 10.8576C9.69183 11.0155 9.70794 11.179 9.76951 11.3277C9.83109 11.4764 9.93537 11.6034 10.0692 11.6928C10.2029 11.7822 10.3602 11.83 10.5212 11.83C10.628 11.8299 10.7338 11.8089 10.8325 11.7679C10.9312 11.727 11.0209 11.6671 11.0964 11.5915C11.172 11.5159 11.2319 11.4262 11.2727 11.3275C11.3136 11.2287 11.3346 11.1229 11.3345 11.016L11.3347 11.0165ZM13.9896 12.8029C13.9896 12.6419 13.9419 12.4844 13.8524 12.3506C13.7629 12.2167 13.6358 12.1123 13.487 12.0507C13.3382 11.9891 13.1745 11.9729 13.0166 12.0044C12.8586 12.0358 12.7136 12.1133 12.5997 12.2272C12.4858 12.341 12.4083 12.4861 12.3769 12.644C12.3455 12.802 12.3616 12.9657 12.4232 13.1145C12.4848 13.2632 12.5892 13.3904 12.7231 13.4799C12.857 13.5693 13.0144 13.6171 13.1754 13.6171C13.2824 13.6171 13.3883 13.596 13.4871 13.5549C13.5859 13.5139 13.6757 13.4539 13.7513 13.3782C13.8269 13.3026 13.8869 13.2127 13.9277 13.1138C13.9685 13.0149 13.9896 12.909 13.9894 12.802L13.9896 12.8029Z" fill="white"/>
</g>
<defs>
<clipPath id="clip0_22_359">
<rect width="22" height="22" fill="white" transform="translate(0.400024)"/>
</clipPath>
<clipPath id="clip1_22_359">
<rect width="22" height="22" fill="white" transform="translate(0.400024)"/>
</clipPath>
</defs>
</svg>
