<svg width="44" height="22" viewBox="0 0 44 22" fill="none" xmlns="http://www.w3.org/2000/svg" xmlns:m="https://www.mapbox.com"><path d="M1 11C1 5.47715 5.47715 1 11 1H32.7328C38.2556 1 42.7328 5.47715 42.7328 11V11C42.7328 16.5228 38.2556 21 32.7328 21H11C5.47715 21 1 16.5228 1 11V11Z" fill="#4264FB"/><path d="M1 11C1 5.47715 5.47715 1 11 1H32.7328C38.2556 1 42.7328 5.47715 42.7328 11V11C42.7328 16.5228 38.2556 21 32.7328 21H11C5.47715 21 1 16.5228 1 11V11Z" stroke="#fff" stroke-width="1.98727"/><path d="M30.0339 6.51642C30.2765 5.76316 31.3422 5.76316 31.5847 6.51642L32.189 8.39328C32.2975 8.72997 32.6108 8.95822 32.9645 8.95822L34.9357 8.95822C35.723 8.95822 36.0523 9.96426 35.4173 10.4298L33.8099 11.6083C33.527 11.8158 33.4086 12.181 33.5162 12.515L34.1271 14.4125C34.3692 15.1644 33.507 15.7862 32.87 15.3192L31.291 14.1614C31.0043 13.9512 30.6144 13.9512 30.3277 14.1614L28.7486 15.3192C28.1116 15.7862 27.2495 15.1644 27.4915 14.4125L28.1025 12.515C28.21 12.181 28.0917 11.8158 27.8088 11.6083L26.2013 10.4298C25.5663 9.96426 25.8956 8.95822 26.683 8.95822L28.6542 8.95822C29.0079 8.95822 29.3212 8.72997 29.4296 8.39328L30.0339 6.51642Z" fill="#fff"/><m:metadata><m:parameters><m:parameter m:name="color-1" m:type="color" m:value="#4264FB"/><m:parameter m:name="color-2" m:type="color" m:value="#FFFFFF"/></m:parameters></m:metadata></svg>