<svg width="23" height="22" viewBox="0 0 23 22" fill="none" xmlns="http://www.w3.org/2000/svg">
<g clip-path="url(#clip0_22_357)">
<g clip-path="url(#clip1_22_357)">
<path d="M22.14 10.9999C22.14 16.7109 17.5109 21.3399 11.8 21.3399C6.08902 21.3399 1.45996 16.7109 1.45996 10.9999C1.45996 5.28897 6.08902 0.659912 11.8 0.659912C17.5109 0.659912 22.14 5.28897 22.14 10.9999Z" fill="#0F38BF" stroke="white" stroke-width="1.32" stroke-linejoin="round"/>
</g>
<path d="M8.27993 4.40002L7.39993 9.24002C7.2711 9.94842 8.96765 10.2793 8.93993 11L8.71993 16.72C8.68614 17.5994 9.59993 17.6 9.59993 17.6C9.59993 17.6 10.5137 17.5994 10.4799 16.72L10.2599 11C10.2323 10.2805 11.7853 9.96092 11.7999 9.24002L10.9199 4.40002H10.4799L10.6999 7.92002L10.0399 8.36002L9.81993 4.40002H9.37993L9.15993 8.36002L8.49993 7.92002L8.71993 4.40002H8.27993ZM15.7599 4.40002C15.1119 4.40002 14.0314 4.97634 13.5994 5.84032C13.2394 6.48835 13.1199 7.93604 13.1199 8.80002V11C13.1199 11.72 14.0799 11.88 14.4399 11.88L13.9999 16.72C13.9203 17.5964 14.8799 17.6 14.8799 17.6C14.8799 17.6 15.7599 17.6 15.7599 16.72V4.40002Z" fill="white"/>
</g>
<defs>
<clipPath id="clip0_22_357">
<rect width="22" height="22" fill="white" transform="translate(0.799927)"/>
</clipPath>
<clipPath id="clip1_22_357">
<rect width="22" height="22" fill="white" transform="translate(0.799927)"/>
</clipPath>
</defs>
</svg>
