<svg width="23" height="22" viewBox="0 0 23 22" fill="none" xmlns="http://www.w3.org/2000/svg">
<g clip-path="url(#clip0_22_360)">
<g clip-path="url(#clip1_22_360)">
<path d="M21.5399 10.9999C21.5399 16.7109 16.9108 21.3399 11.1999 21.3399C5.48892 21.3399 0.859863 16.7109 0.859863 10.9999C0.859863 5.28897 5.48892 0.659912 11.1999 0.659912C16.9108 0.659912 21.5399 5.28897 21.5399 10.9999Z" fill="#0F38BF" stroke="white" stroke-width="1.32" stroke-linejoin="round"/>
</g>
<path d="M14.661 13.2783H16.8522V13.9383H15.0302C15.6975 14.4557 16.1948 15.1609 16.4581 15.9632L15.8333 16.1764C15.572 15.3687 15.0284 14.6822 14.3021 14.2429C14.05 14.4716 13.7301 14.6118 13.3911 14.6423L12.0249 15.827H10.3365L8.98582 14.6283C8.63391 14.5975 8.29912 14.4627 8.02407 14.2411C7.29656 14.6803 6.75203 15.3674 6.49058 16.176L5.86578 15.9629C6.12925 15.1609 6.62629 14.4559 7.29314 13.9383H5.47119V13.2783H7.66582L8.42553 12.683L7.53294 11.2259C7.45462 11.2392 7.37557 11.2478 7.29622 11.2517C7.0558 11.2559 6.81704 11.2112 6.59439 11.1204C6.37174 11.0295 6.16984 10.8945 6.00091 10.7234C5.83199 10.5522 5.69956 10.3486 5.61164 10.1248C5.52371 9.90097 5.48213 9.66165 5.48941 9.4213C5.48941 7.5909 7.23093 5.7605 7.23093 5.7605L6.58272 9.67395L8.10116 9.67289L8.99234 7.02699V9.66312C8.95687 10.1417 8.73608 10.5875 8.37695 10.9058L9.12812 12.1321L9.20239 12.0743C9.77809 11.6654 10.4667 11.4457 11.1729 11.4457C11.879 11.4457 12.5677 11.6654 13.1434 12.0743L13.1966 12.116L13.9613 10.8707C13.6301 10.5518 13.4285 10.1217 13.3952 9.66312V7.02699L14.2608 9.67289L15.8049 9.67395L15.1566 5.76094C15.1566 5.76094 16.9008 7.59134 16.9008 9.42174C16.9079 9.66225 16.866 9.90169 16.7779 10.1256C16.6897 10.3495 16.557 10.5531 16.3879 10.7242C16.2187 10.8953 16.0166 11.0304 15.7937 11.1211C15.5709 11.2118 15.3319 11.2564 15.0914 11.2521C14.9897 11.2487 14.8885 11.2376 14.7885 11.2191L13.8995 12.6672L14.6393 13.2474C14.6506 13.2562 14.6512 13.2688 14.661 13.2783Z" fill="white"/>
</g>
<defs>
<clipPath id="clip0_22_360">
<rect width="22" height="22" fill="white" transform="translate(0.199951)"/>
</clipPath>
<clipPath id="clip1_22_360">
<rect width="22" height="22" fill="white" transform="translate(0.199951)"/>
</clipPath>
</defs>
</svg>
