<svg width="23" height="22" viewBox="0 0 23 22" fill="none" xmlns="http://www.w3.org/2000/svg">
<g clip-path="url(#clip0_22_353)">
<g clip-path="url(#clip1_22_353)">
<path d="M21.94 10.9999C21.94 16.7109 17.311 21.3399 11.6 21.3399C5.88906 21.3399 1.26001 16.7109 1.26001 10.9999C1.26001 5.28897 5.88906 0.659912 11.6 0.659912C17.311 0.659912 21.94 5.28897 21.94 10.9999Z" fill="#0F38BF" stroke="white" stroke-width="1.32" stroke-linejoin="round"/>
</g>
<path d="M15.56 8.80004H13.8V7.04004H6.76001V10.56C6.77171 12.504 8.35712 14.0704 10.3011 14.0587C11.5424 14.0513 12.6879 13.3906 13.316 12.32H15.56C16.5321 12.32 17.32 11.5321 17.32 10.56C17.32 9.58799 16.5321 8.80004 15.56 8.80004ZM15.56 11.44H13.6768C13.7549 11.1531 13.7963 10.8574 13.8 10.56V9.68004H15.56C16.046 9.68004 16.44 10.074 16.44 10.56C16.44 11.0461 16.046 11.44 15.56 11.44ZM13.8 15.4C13.8 15.643 13.603 15.84 13.36 15.84H7.20001C6.95704 15.84 6.76001 15.643 6.76001 15.4C6.76001 15.1571 6.95704 14.96 7.20001 14.96H13.36C13.603 14.96 13.8 15.1571 13.8 15.4Z" fill="white"/>
</g>
<defs>
<clipPath id="clip0_22_353">
<rect width="22" height="22" fill="white" transform="translate(0.599976)"/>
</clipPath>
<clipPath id="clip1_22_353">
<rect width="22" height="22" fill="white" transform="translate(0.599976)"/>
</clipPath>
</defs>
</svg>
