<svg width="40" height="40" viewBox="0 0 40 40" fill="none" xmlns="http://www.w3.org/2000/svg">
<path d="M20 8.74228e-07C8.95 3.91217e-07 -3.91217e-07 8.95 -8.74228e-07 20C-1.35724e-06 31.05 8.95 40 20 40C31.05 40 40 31.05 40 20C40 8.95 31.05 1.35724e-06 20 8.74228e-07ZM20 5C21.65 5 23.2 5.45 24.7 5.95C23.65 6.95 22.45 7.85 22.65 8.75C22.85 9.65 26.1 9.4 26.1 11.25C26.1 12.6 24 13 25.45 14.55C27.2 16.3 22.25 19.45 22.15 21.75C22 25.9 26.35 26.6 29.8 26.6C31.9 26.6 32.45 27.6 32.3 28.8C29.6 32.65 25 35.05 19.95 35.05C18.05 35.05 16.3 34.6 14.65 33.95C15.75 31.75 13.25 27.4 10.9 26C9.75 24.85 7.3 25.3 5.9 24.75C5.45 23.4 5 22.05 4.95 20.55C5.1 20.3 5.35 20.1 5.75 20.1C6.7 20.1 8 22 8.7 21.8C9.6 21.6 5 15.25 7.15 14C8.15 13.4 10.15 15.95 9.5 13.2C8.9 10.65 11.3 11.8 12.8 11.15C14.1 10.6 15.05 9.1 13.45 8.2C13.15 8.05 12.8 7.7 12.35 7.25C14.6 5.9 17.2 5.05 20 5.05L20 5ZM31.55 10.45C32.45 11.55 33.15 12.75 33.75 14.05L33.75 14.2C33.55 14.55 33.2 14.75 32.65 15.3C31.25 16.7 31.05 14.25 30.45 13.75C29.8 13.15 27.45 13.85 27.15 13.1C26.8 12.2 29.65 11 31.55 10.45Z" fill="#23262D"/>
</svg>
