<svg xmlns="http://www.w3.org/2000/svg" viewBox="0 0 40.5 40.5"><defs><style>.cls-1{fill:#602428;}.cls-2{fill:#fff;}.cls-3{fill:#aa9068;}</style></defs><g id="Layer_2" data-name="Layer 2"><g id="Layer_1-2" data-name="Layer 1"><g id="custom_Marker" data-name="custom Marker">
<path class="cls-1" d="M40.24,20.12A20.12,20.12,0,1,0,15,39.56A20.12,20.12,0,0,0,40.24,20.12Z"/>
<g id="Cup">
  <path class="cls-2" d="M27.64,29.24c-.07.85-.16,1.69-.24,2.54,0,.52-.12,1-.17,1.57a.65.65,0,0,1-.4.6,7.17,7.17,0,0,1-1.24.47,16.53,16.53,0,0,1-2,.33c-.69.07-1.38.1-2.07.12a21.35,21.35,0,0,1-3.48-.16,9,9,0,0,1-2.49-.61,2,2,0,0,1-.51-.37.58.58,0,0,1-.13-.33c0-.46-.1-.93-.14-1.39-.07-.64-.13-1.28-.19-1.93,0-.46-.1-.92-.14-1.39-.07-.67-.12-1.35-.2-2,0-.2-.15-.77-.16-1.19.68.25,1.75,1.09,2.47,1.14,1.34.1,2.67.19,4,.23,1,0,1.93,0,2.89-.07s2-.14,3-.25c.52-.05.52.06,1-.18.16-.08.12-.14.13-.31A18.56,18.56,0,0,1,27.64,29.24Z"/>
  <path class="cls-2" d="M27.67,28.84c-.05.28-6.27-1.8-6.59-1.69-3.17,1.1-3.93,0-5.92-.74-.81-.31-1-.63-1-.65-.06-.51-.1-1.05-.15-1.56-.06-.69-.23-2.85-.28-3.29-.06-.69-.13-1.48-.2-2.17,0-.41-.09-.83-.13-1.24-.07-.67-.13-1.32-.2-2a2.85,2.85,0,0,0,0-.29c0-.23,0-.2,0-.36,0-.45-.11-.91-.15-1.37-.07-.67-.13-1.35-.19-2,0-.42-.1-.83-.14-1.25,0-.26,0-.31.28-.3l1.32,0H26.65c.67,0,1.33,0,2,0h.68a.19.19,0,0,1,.21.24c-.06.43-.11.87-.16,1.3-.08.77-.15,1.55-.23,2.32,0,.4-.07.8-.09,1.21C29.06,15,27.86,27.64,27.67,28.84Z"/>
  <path class="cls-2" d="M14,6.52l.48-.14,1,0c4-.12,8-.15,12,0,.75,0,.82.09,1.08.8a.94.94,0,0,1,0,.16c.14.63.28,1.26.41,1.89,0,.13.08.2.21.2a4.87,4.87,0,0,1,.54,0c.23,0,.28.07.2.28s-.12.39.12.52c0,0,.06.07.08.12.1.21.06.28-.18.29-.51,0-1,0-1.54,0l-10.28,0h-1.6l-.31,0-4-.07c-.25,0-.28-.07-.18-.3a.21.21,0,0,1,.08-.12c.2-.12.2-.26.11-.46s0-.32.24-.34l.5,0a.2.2,0,0,0,.22-.19c0-.18,0-.36.09-.53A6.71,6.71,0,0,1,14,6.52Z"/><g id="Marker">
  <path class="cls-3" d="M17.2,25.35s4.7.83,7.33-1.77a3.75,3.75,0,0,0-.12-5.35A3.88,3.88,0,0,0,19,18.11C16.35,20.72,17.2,25.35,17.2,25.35Z"/><path class="cls-2" d="M21.42,18.9l-.75,1.53-1.55.74,1.55.75.75,1.53.75-1.53,1.55-.75-1.55-.74Z"/></g></g></g></g></g></svg>