<svg xmlns="http://www.w3.org/2000/svg" viewBox="0 0 44.24 48.56"><defs><style>.cls-1{fill:#006241;}.cls-2{fill:#fff;}</style></defs><g id="Layer_2" data-name="Layer 2"><g id="Layer_1-2" data-name="Layer 1"><g id="Mrker_highlight" data-name="Mrker highlight"><path class="cls-1" d="M21.3,47a29.05,29.05,0,0,1-4.87-4.51,21.11,21.11,0,1,1,10.71.18,29.11,29.11,0,0,1-4.7,4.32l-.57.41Z"/><path class="cls-2" d="M22.12,2A20.11,20.11,0,0,1,26.6,41.72a29.6,29.6,0,0,1-4.73,4.41A28.51,28.51,0,0,1,17,41.56,20.11,20.11,0,0,1,22.12,2m0-2a22.11,22.11,0,0,0-6.25,43.32,29.75,29.75,0,0,0,4.86,4.45l1.15.79,1.14-.8a31.08,31.08,0,0,0,4.66-4.24A22.11,22.11,0,0,0,22.12,0Z"/><path class="cls-2" d="M29.64,31.24c-.07.85-.16,1.69-.24,2.54,0,.52-.12,1-.17,1.57a.65.65,0,0,1-.4.6,7.17,7.17,0,0,1-1.24.47,16.53,16.53,0,0,1-2,.33c-.69.07-1.38.1-2.07.12a21.35,21.35,0,0,1-3.48-.16,9,9,0,0,1-2.49-.61,2,2,0,0,1-.51-.37.58.58,0,0,1-.13-.33c-.05-.46-.1-.93-.14-1.39-.07-.64-.13-1.28-.19-1.93-.05-.46-.1-.92-.14-1.39-.07-.67-.12-1.35-.2-2,0-.2-.15-.77-.16-1.19.68.25,1.75,1.09,2.47,1.14,1.34.1,2.67.19,4,.23,1,0,1.93,0,2.89-.07s2-.14,3-.25c.52-.05.52.06,1-.18.16-.08.12-.14.13-.31A18.56,18.56,0,0,1,29.64,31.24Z"/><path class="cls-2" d="M29.67,30.84c-.05.28-6.27-1.8-6.59-1.69-3.17,1.1-3.93,0-5.92-.74-.81-.31-1-.63-1-.65-.06-.51-.1-1.05-.15-1.56-.06-.69-.23-2.85-.28-3.29-.06-.69-.13-1.48-.2-2.17,0-.41-.09-.83-.13-1.24-.07-.67-.13-1.32-.2-2a2.85,2.85,0,0,0,0-.29c0-.23,0-.2,0-.36,0-.45-.11-.91-.15-1.37-.07-.67-.13-1.35-.19-2,0-.42-.1-.83-.14-1.25,0-.26,0-.31.28-.3l1.32,0H28.65c.67,0,1.33,0,2,0h.68a.19.19,0,0,1,.21.24c-.06.43-.11.87-.16,1.3-.08.77-.15,1.55-.23,2.32,0,.4-.07.8-.09,1.21C31.06,17,29.86,29.64,29.67,30.84Z"/><path class="cls-2" d="M16,8.52l.48-.14,1.05,0c4-.12,8-.15,12,.05.75,0,.82.09,1.08.8a.94.94,0,0,1,0,.16c.14.63.28,1.26.41,1.89,0,.13.08.2.21.2a4.87,4.87,0,0,1,.54,0c.23,0,.28.07.2.28s-.12.39.12.52c0,0,.06.07.08.12.1.21.06.28-.18.29-.51,0-1,0-1.54,0l-10.28,0h-1.6l-.31,0-4-.07c-.25,0-.28-.07-.18-.3a.21.21,0,0,1,.08-.12c.2-.12.2-.26.11-.46s0-.32.24-.34l.5,0a.2.2,0,0,0,.22-.19c0-.18,0-.36.09-.53A6.71,6.71,0,0,1,16,8.52Z"/><g id="Marker"><path class="cls-1" d="M19.2,27.35s4.7.83,7.33-1.77a3.75,3.75,0,0,0-.12-5.35A3.88,3.88,0,0,0,21,20.11C18.35,22.72,19.2,27.35,19.2,27.35Z"/><path class="cls-2" d="M23.42,20.9l-.75,1.53-1.55.74,1.55.75.75,1.53.75-1.53,1.55-.75-1.55-.74Z"/></g></g></g></g></svg>