<svg width="22" height="33" viewBox="0 0 22 33" fill="none" xmlns="http://www.w3.org/2000/svg">
  <path d="M21.5 10.1666V3.16665C21.5 3.16665 19.1667 0.833313 11 0.833313C2.83333 0.833313 0.5 3.16665 0.5 3.16665V10.1666C0.5672 13.4135 1.36473 16.6034 2.83333 19.5C4.29283 22.8478 4.29283 26.6521 2.83333 30C2.83333 30 2.83333 32.3333 11 32.3333C19.1667 32.3333 19.1667 30 19.1667 30C17.7072 26.6521 17.7072 22.8478 19.1667 19.5C20.6353 16.6034 21.4328 13.4135 21.5 10.1666ZM11 30C9.14127 30.0816 7.28137 29.8609 5.49333 29.3466C5.967 27.661 6.20267 25.9176 6.19333 24.1666H15.8067C15.7973 25.9176 16.033 27.661 16.5067 29.3466C14.7186 29.8609 12.8587 30.0816 11 30ZM11 10.1666C8.23173 10.2364 5.4714 9.84208 2.83333 8.99998V4.33331C5.47233 3.49588 8.23197 3.10178 11 3.16665C13.768 3.10178 16.5277 3.49588 19.1667 4.33331V8.99998C16.5286 9.84208 13.7683 10.2364 11 10.1666Z" fill="#0F38BF"/>
</svg>