<svg width="29" height="24" viewBox="0 0 29 24" fill="none" xmlns="http://www.w3.org/2000/svg">
  <path d="M24.2498 5.16667H19.5832V0.5H0.916504V9.83333C0.947537 14.9879 5.15127 19.1412 10.3058 19.1102C13.597 19.0904 16.6343 17.3387 18.2998 14.5H24.2498C26.8272 14.5 28.9165 12.4107 28.9165 9.83333C28.9165 7.25593 26.8272 5.16667 24.2498 5.16667ZM24.2498 12.1667H19.2565C19.4635 11.4058 19.5734 10.6218 19.5832 9.83333V7.5H24.2498C25.5385 7.5 26.5832 8.54463 26.5832 9.83333C26.5832 11.122 25.5385 12.1667 24.2498 12.1667ZM19.5832 22.6667C19.5832 23.3109 19.0607 23.8333 18.4165 23.8333H2.08317C1.43894 23.8333 0.916504 23.3109 0.916504 22.6667C0.916504 22.0224 1.43894 21.5 2.08317 21.5H18.4165C19.0607 21.5 19.5832 22.0224 19.5832 22.6667Z" fill="#0F38BF"/>
</svg>