<svg width="36" height="36" viewBox="0 0 36 36" fill="none" xmlns="http://www.w3.org/2000/svg">
<path d="M29.3716 9.17336C29.8109 8.73402 29.8109 8.0217 29.3716 7.58236L28.417 6.62777C27.9777 6.18843 27.2654 6.18843 26.826 6.62776L17.9992 15.4544L9.17261 6.62769C8.73327 6.18835 8.02096 6.18835 7.58162 6.62769L6.62702 7.58229C6.18768 8.02163 6.18768 8.73394 6.62702 9.17328L15.4537 18L6.62687 26.8267C6.18753 27.2661 6.18753 27.9784 6.62687 28.4177L7.58146 29.3723C8.0208 29.8117 8.73311 29.8117 9.17245 29.3723L17.9992 20.5456L26.826 29.3723C27.2654 29.8117 27.9777 29.8117 28.417 29.3723L29.3716 28.4177C29.8109 27.9784 29.8109 27.2661 29.3716 26.8267L20.5448 18L29.3716 9.17336Z" fill="#23262D"/>
</svg>