<svg width="30" height="31" viewBox="0 0 30 31" fill="none" xmlns="http://www.w3.org/2000/svg">
  <path d="M3.24937 19.0068L0.0571289 17.5678C3.60296 9.72853 10.0889 3.59774 18.1153 0.498535L18.1783 0.661868L19.3718 3.7666L19.3631 3.76964C12.2108 6.55321 6.42875 12.0207 3.24984 19.0063L3.24937 19.0068ZM28.8298 30.5801L5.64664 20.1303C8.571 13.7021 13.8913 8.67085 20.4726 6.10974L20.4803 6.1067L22.385 11.0585C22.3195 11.0534 22.2635 11.0207 22.1965 11.0207C21.7857 11.0184 21.3807 11.1183 21.0181 11.3113C20.6555 11.5044 20.3465 11.7845 20.1191 12.1266C19.8916 12.4687 19.7528 12.862 19.715 13.2711C19.6773 13.6802 19.7419 14.0922 19.9029 14.4702C20.064 14.8481 20.3165 15.1801 20.6377 15.4362C20.9589 15.6923 21.3388 15.8645 21.7431 15.9374C22.1474 16.0102 22.5634 15.9814 22.9539 15.8536C23.3442 15.7257 23.6967 15.5028 23.9795 15.2048L29.6099 29.8416C29.6512 29.949 29.6596 30.0661 29.6341 30.1783C29.6087 30.2906 29.5506 30.3925 29.4668 30.4716C29.3833 30.5505 29.2781 30.603 29.1647 30.6221C29.0513 30.6413 28.9348 30.6261 28.8298 30.579V30.5801ZM17.3266 18.0438C17.3267 17.6172 17.2002 17.2 16.9632 16.8453C16.7262 16.4905 16.3893 16.214 15.9951 16.0507C15.6009 15.8874 15.1672 15.8446 14.7487 15.9278C14.3303 16.011 13.9459 16.2165 13.6442 16.5181C13.3425 16.8198 13.137 17.2042 13.0537 17.6226C12.9705 18.0411 13.0132 18.4748 13.1764 18.869C13.3397 19.2632 13.6162 19.6001 13.9709 19.8372C14.3257 20.0742 14.7428 20.2007 15.1694 20.2007C15.4528 20.2007 15.7333 20.1448 15.995 20.0363C16.2567 19.9278 16.4945 19.7688 16.6948 19.5684C16.8951 19.368 17.0539 19.1301 17.1622 18.8683C17.2706 18.6065 17.3263 18.326 17.3261 18.0426L17.3266 18.0438ZM24.3659 22.7805C24.3659 22.3535 24.2395 21.9361 24.0022 21.5811C23.7649 21.2261 23.4279 20.9494 23.0334 20.786C22.6389 20.6226 22.2048 20.5799 21.7861 20.6632C21.3673 20.7465 20.9826 20.952 20.6807 21.254C20.3788 21.5559 20.1732 21.9405 20.0899 22.3593C20.0066 22.7781 20.0494 23.2121 20.2127 23.6066C20.3762 24.0011 20.6528 24.3382 21.0079 24.5755C21.3629 24.8126 21.7803 24.9393 22.2072 24.9393C22.4909 24.9393 22.7717 24.8833 23.0338 24.7746C23.2958 24.6658 23.5339 24.5067 23.7343 24.306C23.9347 24.1054 24.0936 23.8671 24.2019 23.6049C24.3102 23.3427 24.3659 23.0618 24.3655 22.7781L24.3659 22.7805Z" fill="#0F38BF"/>
</svg>