<svg width="40" height="40" viewBox="0 0 40 40" fill="none" xmlns="http://www.w3.org/2000/svg">
<path d="M20 9.99994C20 9.99994 17.5 3.99994 10 3.99994C5 3.99994 0 8.22682 0 14.5671C0 24.5038 10.6042 33.0265 19.1205 37.5437C19.6724 37.8365 20.3319 37.8433 20.8839 37.5507C21.608 37.1669 22.3181 36.7544 23.0236 36.3347C23.9729 35.77 24.2837 34.5379 23.7205 33.5877C23.1574 32.6374 21.9342 32.3296 20.9814 32.8883C20.6527 33.0811 20.3227 33.2715 19.9904 33.4575C13.6133 29.8163 4 22.6204 4 14.5671C4 10.4879 7.15684 7.99994 10 7.99994C13.6782 7.99994 15.7195 10.268 17.1793 13.1763C17.722 14.2574 18.7903 14.9999 20 14.9999C21.2097 14.9999 22.278 14.2574 22.8207 13.1763C24.2805 10.268 26.3218 7.99994 30 7.99994C32.8432 7.99994 36 10.4879 36 14.5671C36 16.4316 35.5419 17.8986 34.774 19.6257C34.3219 20.6426 34.7345 21.8424 35.7408 22.3176L35.7851 22.3385C36.7587 22.7982 37.9311 22.4086 38.3689 21.4249C39.347 19.2268 40 16.981 40 14.5671C40 8.22682 35 3.99994 30 3.99994C22.5 3.99994 20 9.99994 20 9.99994Z" fill="#697388"/>
<path d="M30.75 19.9999C31.4404 19.9999 32 20.5596 32 21.2499V25.9999H36.75C37.4404 25.9999 38 26.5596 38 27.2499V28.7499C38 29.4403 37.4404 29.9999 36.75 29.9999H32V34.7499C32 35.4403 31.4404 35.9999 30.75 35.9999H29.25C28.5596 35.9999 28 35.4403 28 34.7499V29.9999H23.25C22.5596 29.9999 22 29.4403 22 28.7499V27.2499C22 26.5596 22.5596 25.9999 23.25 25.9999H28V21.2499C28 20.5596 28.5596 19.9999 29.25 19.9999H30.75Z" fill="#697388"/>
</svg>