<svg width="32" height="32" viewBox="0 0 32 32" fill="none" xmlns="http://www.w3.org/2000/svg">
  <path d="M1.81487 5.62952C1.19265 5.62952 0.777832 6.04433 0.777832 6.66655V22.2221V26.3703C0.777832 26.9925 1.19265 27.4073 1.81487 27.4073C2.43709 27.4073 2.85191 26.9925 2.85191 26.3703V23.2591H29.8149V26.3703C29.8149 26.9925 30.2297 27.4073 30.8519 27.4073C31.4741 27.4073 31.8889 26.9925 31.8889 26.3703V22.2221C31.8889 21.5999 31.4741 21.1851 30.8519 21.1851H2.85191V6.66655C2.85191 6.04433 2.43709 5.62952 1.81487 5.62952ZM8.03709 6.66655C6.37783 6.66655 4.92598 8.11841 4.92598 9.77767C4.92598 11.4369 6.37783 12.8888 8.03709 12.8888C9.69635 12.8888 11.1482 11.4369 11.1482 9.77767C11.1482 8.11841 9.69635 6.66655 8.03709 6.66655ZM15.2964 8.74063C12.1852 8.74063 12.1852 11.8517 12.1852 11.8517V14.9629H5.96302C5.3408 14.9629 4.92598 15.3777 4.92598 15.9999V18.074C4.92598 18.6962 5.3408 19.111 5.96302 19.111H13.2223H31.8889V13.9258C31.8889 8.74063 26.7038 8.74063 26.7038 8.74063H15.2964Z" fill="#4264FB"/>
</svg>