<svg width="28" height="28" viewBox="0 0 28 28" fill="none" xmlns="http://www.w3.org/2000/svg">
  <path d="M7.01146 14.7679L4.28705 12.4975C3.57566 11.9047 3.20339 10.9985 3.29258 10.0768L4.10586 1.67297C4.15927 1.12109 4.62307 0.7 5.17754 0.7C5.78976 0.7 6.27877 1.20982 6.25329 1.82151L5.96895 8.6455C5.95705 8.93122 6.08193 9.20553 6.30523 9.38417C6.88168 9.84533 7.73742 9.45269 7.76377 8.71494L8.01254 1.74933C8.03345 1.16384 8.51415 0.7 9.10002 0.7C9.68588 0.7 10.1666 1.16384 10.1875 1.74933L10.4363 8.71494C10.4626 9.45269 11.3184 9.84533 11.8948 9.38417C12.1181 9.20553 12.243 8.93122 12.2311 8.6455L11.9467 1.82151C11.9213 1.20982 12.4103 0.7 13.0225 0.7C13.577 0.7 14.0408 1.12109 14.0942 1.67297L14.9074 10.0768C14.9966 10.9985 14.6244 11.9047 13.913 12.4975L11.1886 14.7679C10.9756 14.9453 10.8593 15.2132 10.8752 15.49L11.4655 25.8201C11.5114 26.6234 10.8723 27.3 10.0677 27.3H8.1323C7.32771 27.3 6.68868 26.6234 6.73458 25.8201L7.32487 15.49C7.34069 15.2132 7.22442 14.9453 7.01146 14.7679Z" fill="#0F38BF"/>
  <path d="M18.2557 14.141L17.1209 13.2126C16.9178 13.0464 16.7991 12.793 16.8035 12.5306C16.9297 4.97728 20.4505 1.81785 21.6524 0.957396C21.9072 0.774985 22.2139 0.7 22.5273 0.7C23.2302 0.7 23.8 1.26982 23.8 1.97273V25.9C23.8 26.6732 23.1732 27.3 22.4 27.3H20.8359C19.9938 27.3 19.3423 26.5619 19.4467 25.7263L20.2663 19.1697C20.5051 17.2593 19.7458 15.3602 18.2557 14.141Z" fill="#0F38BF"/>
</svg>