<svg width="28" height="28" viewBox="0 0 28 28" fill="none" xmlns="http://www.w3.org/2000/svg">
<path d="M18.9044 20.8203C17.067 22.2492 14.7578 23.1 12.2499 23.1C6.25761 23.1 1.3999 18.2423 1.3999 12.25C1.3999 6.25773 6.25761 1.40002 12.2499 1.40002C18.2422 1.40002 23.0999 6.25773 23.0999 12.25C23.0999 14.7579 22.249 17.0671 20.8202 18.9046L25.5687 22.7486C26.494 23.4976 26.5667 24.8832 25.7249 25.725C24.8831 26.5668 23.4975 26.4941 22.7484 25.5688L18.9044 20.8203ZM20.2999 12.25C20.2999 7.80413 16.6958 4.20002 12.2499 4.20002C7.80401 4.20002 4.1999 7.80413 4.1999 12.25C4.1999 16.6959 7.80401 20.3 12.2499 20.3C16.6958 20.3 20.2999 16.6959 20.2999 12.25Z" fill="#23262D"/>
</svg>