<svg width="19" height="34" viewBox="0 0 19 34" fill="none" xmlns="http://www.w3.org/2000/svg">
  <path d="M4.94328 19.5633C6.61314 19.5658 8.243 19.0524 9.60995 18.0933C10.6924 18.8471 11.9414 19.3275 13.2499 19.4933H14.2766L10.9166 32.4666C10.827 32.6771 10.6774 32.8566 10.4866 32.9827C10.2957 33.1088 10.072 33.1761 9.84328 33.1761C9.61453 33.1761 9.39082 33.1088 9.19998 32.9827C9.00914 32.8566 8.8596 32.6771 8.76995 32.4666L4.94328 19.5633ZM18.9433 11.4596C18.9433 12.6973 18.4516 13.8843 17.5764 14.7595C16.7013 15.6346 15.5143 16.1263 14.2766 16.1263C13.0389 16.1263 11.852 15.6346 10.9768 14.7595C10.1016 13.8843 9.60995 12.6973 9.60995 11.4596C9.60995 12.3826 9.33625 13.2849 8.82347 14.0523C8.31069 14.8197 7.58186 15.4179 6.72914 15.7711C5.87641 16.1243 4.9381 16.2167 4.03286 16.0366C3.12761 15.8566 2.29609 15.4121 1.64345 14.7595C0.990803 14.1068 0.546346 13.2753 0.366282 12.3701C0.186218 11.4648 0.278633 10.5265 0.631842 9.67379C0.985051 8.82107 1.58319 8.09223 2.35062 7.57945C3.11805 7.06667 4.0203 6.79298 4.94328 6.79298H5.22328C4.96134 6.0873 4.87399 5.32873 4.96869 4.58198C5.06338 3.83524 5.3373 3.12248 5.76708 2.50452C6.19687 1.88655 6.76976 1.38172 7.43688 1.03309C8.104 0.684462 8.84556 0.50238 9.59828 0.50238C10.351 0.50238 11.0926 0.684462 11.7597 1.03309C12.4268 1.38172 12.9997 1.88655 13.4295 2.50452C13.8593 3.12248 14.1332 3.83524 14.2279 4.58198C14.3226 5.32873 14.2352 6.0873 13.9733 6.79298H14.2766C14.8898 6.79328 15.497 6.91445 16.0634 7.14954C16.6297 7.38464 17.1442 7.72906 17.5774 8.16311C18.0106 8.59716 18.354 9.11233 18.588 9.67918C18.8219 10.246 18.9419 10.8534 18.9409 11.4666L18.9433 11.4596Z" fill="#0F38BF"/>
</svg>