<svg width="186" height="36" viewBox="0 0 186 36" fill="none" xmlns="http://www.w3.org/2000/svg">
<path d="M51.7897 25.9072H48V5H51.7897V13.8011H61.6134V5H65.3663V25.9072H61.6134V16.7347H51.7897V25.9072Z" fill="#0D1E37"/>
<path d="M75.9954 26.2785C74.2784 26.2785 72.8557 25.9443 71.7274 25.2759C70.5991 24.6074 69.7529 23.6914 69.1887 22.5279C68.6246 21.3395 68.3425 19.9903 68.3425 18.4801C68.3179 16.2025 68.9434 14.3333 70.2189 12.8727C71.5189 11.3873 73.4444 10.6446 75.9954 10.6446C78.4728 10.6446 80.3492 11.3625 81.6247 12.7984C82.9248 14.2343 83.5748 16.1282 83.5748 18.4801C83.5748 19.9408 83.3049 21.2653 82.7653 22.4536C82.2257 23.6419 81.3917 24.5827 80.2634 25.2759C79.1351 25.9443 77.7124 26.2785 75.9954 26.2785ZM75.9954 23.0849C77.0747 23.0849 77.8964 22.8497 78.4605 22.3793C79.0492 21.9089 79.4417 21.3148 79.6379 20.5968C79.8341 19.8541 79.9323 19.1114 79.9323 18.3687C79.9323 17.6012 79.8341 16.8462 79.6379 16.1034C79.4417 15.3607 79.0492 14.7542 78.4605 14.2838C77.8964 13.8134 77.0747 13.5782 75.9954 13.5782C74.8916 13.5782 74.0454 13.8258 73.4567 14.321C72.8925 14.7913 72.5001 15.3979 72.2793 16.1406C72.0831 16.8585 71.985 17.6012 71.985 18.3687C71.985 19.1114 72.0831 19.8541 72.2793 20.5968C72.5001 21.3148 72.8925 21.9089 73.4567 22.3793C74.0454 22.8497 74.8916 23.0849 75.9954 23.0849Z" fill="#0D1E37"/>
<path d="M91.4735 26.2785C90.1489 26.2785 89.1187 26.0186 88.3829 25.4987C87.647 24.9788 87.1074 24.3103 86.764 23.4934C86.4451 22.6764 86.2489 21.8223 86.1753 20.931C86.1017 20.015 86.0649 19.1857 86.0649 18.443V10.6446H89.7074V18.443C89.7074 19.2104 89.781 19.9408 89.9282 20.634C90.0753 21.3271 90.3819 21.8842 90.848 22.305C91.3386 22.7259 92.0744 22.9363 93.0556 22.9363C94.0122 22.9363 94.7358 22.7259 95.2263 22.305C95.7169 21.8594 96.0481 21.3024 96.2198 20.634C96.3915 19.9655 96.4896 19.2723 96.5141 18.5544L96.5509 10.6446H100.377V25.9072H97.1764L96.5509 23.0106H96.4773C96.4282 23.1592 96.3056 23.4067 96.1094 23.7533C95.9131 24.0999 95.6188 24.4713 95.2263 24.8674C94.8584 25.2635 94.3678 25.5977 93.7546 25.87C93.1414 26.1424 92.381 26.2785 91.4735 26.2785Z" fill="#0D1E37"/>
<path d="M109.536 26.2785C108.899 26.2785 108.187 26.1671 107.403 25.9443C106.642 25.7215 105.906 25.3873 105.195 24.9416C104.508 24.496 103.932 23.9266 103.466 23.2334C103.024 22.5155 102.803 21.6737 102.803 20.7082H106.262C106.262 20.7577 106.274 20.931 106.299 21.2281C106.323 21.5004 106.421 21.8223 106.593 22.1936C106.789 22.5402 107.108 22.8497 107.55 23.122C107.991 23.3943 108.629 23.5305 109.463 23.5305C110.444 23.5305 111.18 23.3572 111.67 23.0106C112.161 22.6393 112.406 22.2184 112.406 21.748C112.406 21.2034 112.173 20.7825 111.707 20.4854C111.266 20.1636 110.689 19.9036 109.978 19.7056C109.267 19.5075 108.506 19.3095 107.697 19.1114C106.912 18.8886 106.164 18.6039 105.452 18.2573C104.766 17.9107 104.202 17.4403 103.76 16.8462C103.318 16.2272 103.098 15.435 103.098 14.4695C103.098 13.0584 103.662 11.9938 104.79 11.2759C105.919 10.5332 107.353 10.1618 109.095 10.1618C110.321 10.1618 111.462 10.3599 112.517 10.756C113.571 11.1273 114.418 11.7339 115.055 12.5756C115.693 13.3926 116.012 14.4695 116.012 15.8064H112.554C112.578 15.0389 112.406 14.4695 112.038 14.0981C111.695 13.702 111.254 13.4297 110.714 13.2812C110.199 13.1326 109.696 13.0584 109.205 13.0584C108.322 13.0584 107.648 13.2193 107.182 13.5411C106.74 13.8382 106.519 14.2343 106.519 14.7294C106.519 15.2989 106.74 15.7445 107.182 16.0663C107.648 16.3634 108.236 16.611 108.948 16.809C109.684 17.0071 110.444 17.2175 111.229 17.4403C112.038 17.6384 112.799 17.9107 113.51 18.2573C114.246 18.6039 114.835 19.0743 115.276 19.6684C115.742 20.2378 115.975 21.0053 115.975 21.9708C115.975 23.4315 115.374 24.5208 114.172 25.2387C112.995 25.9319 111.45 26.2785 109.536 26.2785Z" fill="#0D1E37"/>
<path d="M125.506 26.2785C123.765 26.2785 122.342 25.9072 121.238 25.1645C120.159 24.397 119.349 23.4315 118.81 22.2679C118.295 21.0796 118.025 19.8294 118 18.5172C117.976 16.9823 118.258 15.6207 118.847 14.4324C119.46 13.2193 120.318 12.2785 121.422 11.6101C122.55 10.9169 123.875 10.5703 125.396 10.5703C126.745 10.5703 127.947 10.8674 129.001 11.4615C130.081 12.0557 130.939 12.8974 131.577 13.9867C132.215 15.0513 132.546 16.3139 132.57 17.7745C132.57 17.824 132.57 17.9602 132.57 18.183C132.57 18.4058 132.57 18.5915 132.57 18.7401H121.569C121.569 20.1512 121.913 21.2405 122.599 22.008C123.286 22.7507 124.231 23.122 125.432 23.122C126.365 23.122 127.137 22.8868 127.75 22.4164C128.388 21.9461 128.768 21.3271 128.891 20.5597H132.534C132.362 22.1689 131.675 23.5305 130.473 24.6446C129.271 25.7339 127.616 26.2785 125.506 26.2785ZM121.68 17.0318H128.817C128.793 16.8585 128.732 16.5862 128.633 16.2149C128.56 15.8435 128.4 15.4598 128.155 15.0637C127.934 14.6676 127.591 14.3333 127.125 14.061C126.659 13.7887 126.058 13.6525 125.322 13.6525C124.341 13.6525 123.593 13.863 123.078 14.2838C122.587 14.6799 122.232 15.1503 122.011 15.695C121.815 16.2149 121.704 16.6605 121.68 17.0318Z" fill="#0D1E37"/>
<path d="M144.672 26.2785C143.764 26.2785 142.992 26.1424 142.354 25.87C141.716 25.5729 141.189 25.2263 140.772 24.8302C140.38 24.4341 140.085 24.0752 139.889 23.7533C139.717 23.4315 139.619 23.2458 139.595 23.1963H139.521L138.896 25.9072H135.658V5H139.521V13.9867H139.595C139.619 13.9125 139.717 13.702 139.889 13.3554C140.061 13.0088 140.33 12.6251 140.698 12.2042C141.091 11.7834 141.606 11.4244 142.244 11.1273C142.906 10.8055 143.715 10.6446 144.672 10.6446C146.88 10.6446 148.474 11.3625 149.455 12.7984C150.436 14.2343 150.927 16.153 150.927 18.5544C150.927 20.8815 150.436 22.7507 149.455 24.1618C148.499 25.5729 146.904 26.2785 144.672 26.2785ZM143.458 23.0849C144.464 23.0849 145.236 22.8744 145.776 22.4536C146.34 22.008 146.72 21.4386 146.916 20.7454C147.137 20.0274 147.248 19.2847 147.248 18.5172C147.248 17.7498 147.137 17.0318 146.916 16.3634C146.696 15.6702 146.291 15.1132 145.702 14.6923C145.138 14.2467 144.353 14.0239 143.347 14.0239C141.974 14.0239 140.993 14.4571 140.404 15.3236C139.84 16.1653 139.558 17.2299 139.558 18.5172C139.558 19.8541 139.852 20.9558 140.441 21.8223C141.054 22.664 142.06 23.0849 143.458 23.0849Z" fill="#007AFC"/>
<path d="M158.879 26.2785C157.555 26.2785 156.525 26.0186 155.789 25.4987C155.053 24.9788 154.513 24.3103 154.17 23.4934C153.851 22.6764 153.655 21.8223 153.581 20.931C153.508 20.015 153.471 19.1857 153.471 18.443V10.6446H157.113V18.443C157.113 19.2104 157.187 19.9408 157.334 20.634C157.481 21.3271 157.788 21.8842 158.254 22.305C158.744 22.7259 159.48 22.9363 160.461 22.9363C161.418 22.9363 162.142 22.7259 162.632 22.305C163.123 21.8594 163.454 21.3024 163.626 20.634C163.797 19.9655 163.895 19.2723 163.92 18.5544L163.957 10.6446H167.783V25.9072H164.582L163.957 23.0106H163.883C163.834 23.1592 163.711 23.4067 163.515 23.7533C163.319 24.0999 163.025 24.4713 162.632 24.8674C162.264 25.2635 161.774 25.5977 161.16 25.87C160.547 26.1424 159.787 26.2785 158.879 26.2785Z" fill="#007AFC"/>
<path d="M169.142 33V30.0663H171.46C171.828 30.0663 172.147 30.0292 172.417 29.9549C172.687 29.8806 172.956 29.6826 173.226 29.3607C173.496 29.0637 173.803 28.5685 174.146 27.8753L175.139 25.6472L169.253 10.6446H173.116L176.979 21.748L181.137 10.6446H185L177.568 28.2467C176.979 29.6331 176.439 30.6605 175.949 31.3289C175.458 32.0221 174.906 32.4677 174.293 32.6658C173.705 32.8886 172.944 33 172.012 33H169.142Z" fill="#007AFC"/>
<path d="M2.67653 20.9171C2.37585 20.7066 2.1754 20.4649 2.07517 20.192C1.97494 19.9114 1.97494 19.6307 2.07517 19.35C2.1754 19.0694 2.37585 18.8238 2.67653 18.6133L8.00782 14.8592C8.33163 14.6253 8.7017 14.5123 9.11803 14.5201C9.53435 14.5201 9.91213 14.637 10.2514 14.8709L15.5595 18.6133C15.8525 18.8238 16.0491 19.0694 16.1493 19.35C16.2495 19.6307 16.2495 19.9114 16.1493 20.192C16.0491 20.4649 15.8525 20.7066 15.5595 20.9171L10.3092 24.6127C9.94683 24.8621 9.55363 24.9908 9.12959 24.9986C8.70556 25.0142 8.33163 24.9011 8.00782 24.6594L2.67653 20.9171ZM12.5643 13.3974C12.2636 13.1869 12.0632 12.9452 11.9629 12.6723C11.8704 12.3917 11.8704 12.111 11.9629 11.8303C12.0632 11.5496 12.2636 11.304 12.5643 11.0935L17.8956 7.33952C18.2271 7.10563 18.5972 6.99258 19.0058 7.00038C19.4221 7.00038 19.7999 7.11732 20.1391 7.35122L25.4473 11.0935C25.7402 11.304 25.9368 11.5496 26.0371 11.8303C26.1373 12.111 26.1373 12.3917 26.0371 12.6723C25.9368 12.9452 25.7402 13.1869 25.4473 13.3974L20.1969 17.0812C19.8346 17.3385 19.4414 17.475 19.0173 17.4906C18.601 17.4984 18.2271 17.3814 17.8956 17.1397L12.5643 13.3974ZM22.4636 20.9171C22.1629 20.7066 21.9625 20.4649 21.8622 20.192C21.762 19.9114 21.762 19.6307 21.8622 19.35C21.9625 19.0694 22.1629 18.8238 22.4636 18.6133L27.7833 14.8592C28.1149 14.6253 28.4849 14.5123 28.8935 14.5201C29.3099 14.5201 29.6876 14.637 30.0269 14.8709L35.3466 18.6133C35.6396 18.8238 35.8323 19.0694 35.9248 19.35C36.0251 19.6307 36.0251 19.9114 35.9248 20.192C35.8323 20.4649 35.6396 20.7066 35.3466 20.9171L30.0269 24.6477C29.6876 24.8894 29.306 25.0064 28.882 24.9986C28.4656 24.9986 28.0802 24.8738 27.7255 24.6244L22.4636 20.9171Z" fill="#007AFC"/>
</svg>
