<svg preserveAspectRatio="none" overflow="visible" style="display: block;" width="24" height="24" viewBox="0 0 24 24" fill="none" xmlns="http://www.w3.org/2000/svg">
<g id="icons">
<path id="Vector" d="M3 12.0001H4M4 12.0001H20M17.255 17.8411C16.8457 17.9504 16.4236 18.0039 16 18.0001H8C7.532 18.0001 7.115 17.9431 6.745 17.8411C4.583 17.2481 4 15.1381 4 14.0001V12.0001M20 12.0001C20.2652 12.0001 20.5196 11.8948 20.7071 11.7072C20.8946 11.5197 21 11.2653 21 11.0001V7.00012C21 6.00012 20.4 4.00012 18 4.00012C15.6 4.00012 15 6.00012 15 7.00012M20 12.0001V14.0001C20 15.1381 19.417 17.2481 17.255 17.8411M15 7.00012H13M15 7.00012H17M17.255 17.8411L18 20.0001M6.745 17.8411L6 20.0001" stroke="#566171" stroke-width="2" stroke-linecap="round" stroke-linejoin="round"/>
</g>
</svg>
