<svg width="127" height="30" viewBox="0 0 127 30" fill="none" xmlns="http://www.w3.org/2000/svg">
<path d="M12.8316 14.6894L7.85078 11.9823V18.8388L12.8316 21.5237L25.6395 14.6006V7.74411L12.8316 14.6894Z" fill="#1C4ED8"/>
<path d="M12.8316 6.83432L18.5715 9.94082L24.9043 6.52367L12.8316 0L0.759005 6.52367L7.04437 9.96302L12.8316 6.83432Z" fill="#1C4ED8"/>
<path d="M6.3328 19.6376V11.1612L0 7.74409V23.0547L12.8316 30L25.6395 23.0547V16.2204L12.8316 23.1435L6.3328 19.6376Z" fill="#1C4ED8"/>
<path d="M12.8316 14.6894L7.85078 11.9823V18.8388L12.8316 21.5237V14.6894Z" fill="#153BA2"/>
<path d="M12.8316 6.83432V0L0.759005 6.52367L7.04437 9.96302L12.8316 6.83432Z" fill="#153BA2"/>
<path d="M6.3328 19.6376V11.1612L0 7.74409V23.0547L12.8316 30V23.1435L6.3328 19.6376Z" fill="#153BA2"/>
<path d="M41.5779 7.19608C44.7629 7.19608 47.0314 9.13194 47.0314 12.1049C47.0314 15.0317 44.7629 17.0367 41.5779 17.0367H38.9887V22.4064H35.8954V7.19608H41.5779ZM41.5779 9.93854H38.9887V14.3173H41.5779C43.0215 14.3173 43.8693 13.4185 43.8693 12.1049C43.8693 10.8373 43.0215 9.93854 41.5779 9.93854Z" fill="#23262D"/>
<path d="M53.0629 10.7451C55.95 10.7451 57.9206 12.3814 57.9206 15.6309V22.4064H55.0793V21.3002C54.2773 22.1529 53.0858 22.6829 51.6193 22.6829C49.1447 22.6829 47.7011 21.208 47.7011 19.2721C47.7011 17.198 49.3738 15.9535 51.986 15.9535H54.8272V15.4465C54.8272 14.202 54.1169 13.4415 52.7192 13.4415C51.5048 13.4415 50.657 14.0177 49.7175 15.0086L48.1136 13.0958C49.4426 11.5057 51.0694 10.7451 53.0629 10.7451ZM52.4442 20.4014C53.7503 20.4014 54.8272 19.4795 54.8272 18.1429V18.0046H52.3984C51.3902 18.0046 50.8174 18.3964 50.8174 19.1569C50.8174 19.9405 51.4819 20.4014 52.4442 20.4014Z" fill="#23262D"/>
<path d="M66.2186 10.8604C66.631 10.8604 66.9289 10.9065 67.2268 10.9987V13.7411H66.4019C64.6146 13.7411 63.3544 14.663 63.3544 16.714V22.4064H60.2611V10.9987H63.1023V12.3584C63.8585 11.3904 64.9813 10.8604 66.2186 10.8604Z" fill="#23262D"/>
<path d="M73.7148 10.7451C75.9833 10.7451 77.7018 11.8514 78.6412 13.5567L76.4874 15.2391C75.8458 14.2712 75.0209 13.5798 73.7606 13.5798C71.9963 13.5798 70.7819 14.9165 70.7819 16.691C70.7819 18.4886 71.9963 19.8252 73.7606 19.8252C74.998 19.8252 75.8229 19.1339 76.4874 18.189L78.6412 19.8483C77.7018 21.5537 75.9604 22.6829 73.7148 22.6829C70.3236 22.6829 67.6427 20.0787 67.6427 16.691C67.6427 13.3263 70.3236 10.7451 73.7148 10.7451Z" fill="#23262D"/>
<path d="M90.6987 16.0457C90.6987 16.691 90.5841 17.3593 90.4925 17.7511H82.5415C82.9081 19.203 84.0767 20.0096 85.7264 20.0096C86.9638 20.0096 87.972 19.5717 88.8885 18.8573L90.1717 20.9775C88.8885 22.0607 87.3762 22.6829 85.6348 22.6829C82.0374 22.6829 79.4252 20.0787 79.4252 16.714C79.4252 13.3493 82.0145 10.7451 85.3598 10.7451C88.5448 10.7451 90.6987 13.0958 90.6987 16.0457ZM85.2453 13.2572C83.9392 13.2572 82.8852 14.1329 82.5415 15.5617H87.697C87.6741 14.1098 86.5513 13.2572 85.2453 13.2572Z" fill="#23262D"/>
<path d="M95.5692 5.12195V22.4064H92.4758V5.12195H95.5692Z" fill="#23262D"/>
<path d="M105.417 6.91953C108.121 6.91953 110.343 8.14096 111.787 10.2151L109.587 12.0357C108.579 10.6299 107.227 9.80027 105.371 9.80027C102.438 9.80027 100.513 11.8974 100.513 14.8012C100.513 17.7511 102.507 19.8944 105.554 19.8944C107.319 19.8944 108.716 19.1569 109.541 18.0046V16.7601H105.371V14.0638H112.635V18.5577C111.306 20.9545 108.648 22.6829 105.417 22.6829C100.88 22.6829 97.3284 19.2721 97.3284 14.8012C97.3284 10.3303 100.857 6.91953 105.417 6.91953Z" fill="#23262D"/>
<path d="M119.905 10.7451C123.25 10.7451 126 13.3263 126 16.691C126 20.0787 123.25 22.6599 119.882 22.6599C116.514 22.6599 113.833 20.0787 113.833 16.691C113.833 13.3263 116.514 10.7451 119.905 10.7451ZM119.905 13.5798C118.186 13.5798 116.972 14.9165 116.972 16.714C116.972 18.5116 118.186 19.8022 119.905 19.8022C121.578 19.8022 122.838 18.4886 122.838 16.714C122.838 14.9165 121.578 13.5798 119.905 13.5798Z" fill="#23262D"/>
</svg>
